G04*
G04 #@! TF.GenerationSoftware,Altium Limited,Altium Designer,21.6.4 (81)*
G04*
G04 Layer_Color=65535*
%FSLAX25Y25*%
%MOIN*%
G70*
G04*
G04 #@! TF.SameCoordinates,954FB955-D8E7-4683-B3BB-D37EB7A61878*
G04*
G04*
G04 #@! TF.FilePolarity,Positive*
G04*
G01*
G75*
%ADD10C,0.00787*%
%ADD11C,0.00600*%
%ADD12C,0.00500*%
%ADD13C,0.01181*%
%ADD14C,0.01000*%
%ADD15C,0.02000*%
D10*
X502579Y295315D02*
G03*
X502579Y295315I-394J0D01*
G01*
X362864Y42185D02*
G03*
X362864Y42185I-394J0D01*
G01*
X190394Y316638D02*
G03*
X190394Y316638I-394J0D01*
G01*
X211756Y281858D02*
G03*
X211756Y281858I-394J0D01*
G01*
X235394Y317362D02*
G03*
X235394Y317362I-394J0D01*
G01*
X11328Y787D02*
G03*
X11328Y787I-394J0D01*
G01*
X350787Y351043D02*
G03*
X350787Y351043I-394J0D01*
G01*
X280787D02*
G03*
X280787Y351043I-394J0D01*
G01*
X345256Y348504D02*
X354744D01*
Y226496D02*
Y348504D01*
X345256Y226496D02*
Y348504D01*
Y226496D02*
X354744D01*
X275256Y348504D02*
X284744D01*
Y226496D02*
Y348504D01*
X275256Y226496D02*
Y348504D01*
Y226496D02*
X284744D01*
D11*
X295695Y118702D02*
G03*
X297200Y119795I341J1114D01*
G01*
X378101Y284005D02*
G03*
X379195Y282500I1114J-341D01*
G01*
X398201Y289305D02*
G03*
X399295Y287800I1114J-341D01*
G01*
X295300Y119800D02*
X297200D01*
X298700D01*
Y111200D02*
Y113300D01*
X295300Y111200D02*
X298700D01*
Y117700D02*
Y119800D01*
X377100Y281000D02*
X379200D01*
X370600D02*
Y284400D01*
Y281000D02*
X372700D01*
X379200D02*
Y282500D01*
Y284400D01*
X397200Y286300D02*
X399300D01*
X390700D02*
Y289700D01*
Y286300D02*
X392800D01*
X399300D02*
Y287800D01*
Y289700D01*
D12*
X209685Y294000D02*
G03*
X209685Y294000I-19685J0D01*
G01*
X254685Y340000D02*
G03*
X254685Y340000I-19685J0D01*
G01*
X498248Y285472D02*
Y364213D01*
X462815Y285472D02*
Y364213D01*
X498248D01*
X462815Y285472D02*
X498248D01*
X214832Y38248D02*
X372313D01*
X214832Y2815D02*
X372313D01*
X214832D02*
Y38248D01*
X372313Y2815D02*
Y38248D01*
X222189Y276937D02*
Y284811D01*
Y261189D02*
Y269063D01*
Y261189D02*
X245811D01*
Y284811D01*
X222189D02*
X245811D01*
X221795Y276937D02*
X222189D01*
X221795Y269063D02*
X222189D01*
X174232Y334122D02*
X200768D01*
Y358614D01*
X174232Y334122D02*
Y358614D01*
X1092Y4724D02*
Y40157D01*
X197942Y4724D02*
Y40157D01*
X1092D02*
X197942D01*
X1092Y4724D02*
X197942D01*
D13*
X178839Y317303D02*
G03*
X178839Y317303I-394J0D01*
G01*
D14*
X134250Y133500D02*
X196750D01*
X134250Y193500D02*
X196750D01*
Y133500D02*
Y193500D01*
X134250Y133500D02*
Y193500D01*
X245000Y178500D02*
Y203500D01*
X299000Y178500D02*
Y203500D01*
X245000D02*
X299000D01*
X245000Y178500D02*
X299000D01*
X245000Y150500D02*
Y175500D01*
X299000Y150500D02*
Y175500D01*
X245000D02*
X299000D01*
X245000Y150500D02*
X299000D01*
X496850Y98750D02*
Y183750D01*
X464350Y98750D02*
Y183750D01*
Y98750D02*
X496850D01*
X464400Y183800D02*
X496800D01*
X496850Y1250D02*
Y98750D01*
X464350Y1250D02*
Y98750D01*
X496850D01*
X464350Y1250D02*
X496850D01*
X429350D02*
X461850D01*
X429350Y98750D02*
X461850D01*
X429350Y1250D02*
Y98750D01*
X461850Y1250D02*
Y98750D01*
X429400Y183800D02*
X461800D01*
X429350Y98750D02*
X461850D01*
X429350D02*
Y183750D01*
X461850Y98750D02*
Y183750D01*
X426850Y98750D02*
Y183750D01*
X394350Y98750D02*
Y183750D01*
Y98750D02*
X426850D01*
X394400Y183800D02*
X426800D01*
X426850Y1250D02*
Y98750D01*
X394350Y1250D02*
Y98750D01*
X426850D01*
X394350Y1250D02*
X426850D01*
X1250Y331250D02*
X98750D01*
X1250Y363750D02*
X98750D01*
Y331250D02*
Y363750D01*
X1250Y331250D02*
Y363750D01*
X98750Y331250D02*
X131250D01*
X98750Y363750D02*
X131250D01*
X98750Y331250D02*
Y363750D01*
X125250Y331250D02*
X157750D01*
X125250Y363750D02*
X157750D01*
Y331250D02*
Y363750D01*
X1250Y296250D02*
X98750D01*
X1250Y328750D02*
X98750D01*
Y296250D02*
Y328750D01*
X1250Y296250D02*
Y328750D01*
X98750Y296250D02*
X131250D01*
X98750Y328750D02*
X131250D01*
X98750Y296250D02*
Y328750D01*
X125250Y296250D02*
X157750D01*
X125250Y328750D02*
X157750D01*
Y296250D02*
Y328750D01*
X120500Y48000D02*
Y102000D01*
X145500Y48000D02*
Y102000D01*
X120500Y48000D02*
X145500D01*
X120500Y102000D02*
X145500D01*
X81500Y48000D02*
Y102000D01*
X106500Y48000D02*
Y102000D01*
X81500Y48000D02*
X106500D01*
X81500Y102000D02*
X106500D01*
X38100Y48000D02*
Y102000D01*
X63100Y48000D02*
Y102000D01*
X38100Y48000D02*
X63100D01*
X38100Y102000D02*
X63100D01*
X62500Y101400D02*
X63100Y102000D01*
X38100D02*
X63100D01*
X37500Y101400D02*
X38100Y102000D01*
X37500Y76565D02*
Y101400D01*
X1092Y40157D02*
X37500Y76565D01*
X1092Y4724D02*
Y40157D01*
Y4724D02*
X57224D01*
X57500Y5000D01*
Y37500D01*
X63100Y43100D01*
Y48000D01*
X107500Y55000D02*
X115000Y47500D01*
Y5000D02*
Y47500D01*
X65000Y5000D02*
X115000D01*
X65000D02*
Y37500D01*
X81500Y54000D01*
Y102000D01*
X197333Y5000D02*
X197500Y5167D01*
Y50000D01*
X145500Y102000D02*
X197500Y50000D01*
X120500Y102000D02*
X145500D01*
X120000Y101500D02*
X120500Y102000D01*
X120000Y5000D02*
Y101500D01*
X186750Y133500D02*
X196750D01*
X186750Y193500D02*
X196750D01*
X186750Y133500D02*
Y193500D01*
X196750Y133500D02*
Y193500D01*
X305500Y120039D02*
Y185000D01*
X391000Y120039D02*
Y185000D01*
X305500D02*
X391000D01*
X305500Y120039D02*
X391000D01*
X245000Y122500D02*
Y147500D01*
X299000Y122500D02*
Y147500D01*
X245000D02*
X299000D01*
X245000Y122500D02*
X299000D01*
X366417Y273516D02*
X431378D01*
X366417Y188016D02*
X431378D01*
Y273516D01*
X366417Y188016D02*
Y273516D01*
X435039Y274500D02*
X500000D01*
X435039Y189000D02*
X500000D01*
Y274500D01*
X435039Y189000D02*
Y274500D01*
X500Y132250D02*
X98000D01*
X500Y164750D02*
X98000D01*
Y132250D02*
Y164750D01*
X500Y132250D02*
Y164750D01*
X98000Y132250D02*
X130500D01*
X98000Y164750D02*
X130500D01*
Y132250D02*
Y164750D01*
X98000Y132250D02*
Y164750D01*
X500Y167250D02*
X98000D01*
X500Y199750D02*
X98000D01*
Y167250D02*
Y199750D01*
X500Y167250D02*
Y199750D01*
X98000Y167250D02*
X130500D01*
X98000Y199750D02*
X130500D01*
Y167250D02*
Y199750D01*
X98000Y167250D02*
Y199750D01*
X156756Y171596D02*
X155756Y172596D01*
X153757D01*
X152757Y171596D01*
Y167597D01*
X153757Y166598D01*
X155756D01*
X156756Y167597D01*
X158755Y166598D02*
Y170596D01*
X160755Y172596D01*
X162754Y170596D01*
Y166598D01*
Y169597D01*
X158755D01*
X164753Y166598D02*
Y172596D01*
X168752Y166598D01*
Y172596D01*
X144260Y157000D02*
Y162998D01*
X146259Y160999D01*
X148259Y162998D01*
Y157000D01*
X151258D02*
X153257D01*
X154257Y158000D01*
Y159999D01*
X153257Y160999D01*
X151258D01*
X150258Y159999D01*
Y158000D01*
X151258Y157000D01*
X160255Y162998D02*
Y157000D01*
X157256D01*
X156256Y158000D01*
Y159999D01*
X157256Y160999D01*
X160255D01*
X162254D02*
Y158000D01*
X163254Y157000D01*
X166253D01*
Y160999D01*
X168252Y157000D02*
X170252D01*
X169252D01*
Y162998D01*
X168252D01*
X176250Y157000D02*
X174250D01*
X173251Y158000D01*
Y159999D01*
X174250Y160999D01*
X176250D01*
X177249Y159999D01*
Y158999D01*
X173251D01*
X179999Y235998D02*
X178999Y236998D01*
X177000D01*
X176000Y235998D01*
Y232000D01*
X177000Y231000D01*
X178999D01*
X179999Y232000D01*
X181998Y231000D02*
Y234999D01*
X183997Y236998D01*
X185997Y234999D01*
Y231000D01*
Y233999D01*
X181998D01*
X187996Y231000D02*
Y236998D01*
X191995Y231000D01*
Y236998D01*
X199992D02*
Y231000D01*
X203991D01*
X205990D02*
Y232000D01*
X206990D01*
Y231000D01*
X205990D01*
X210989D02*
Y236998D01*
X213988D01*
X214987Y235998D01*
Y233999D01*
X213988Y232999D01*
X210989D01*
X216987Y231000D02*
Y232000D01*
X217986D01*
Y231000D01*
X216987D01*
X227983Y236998D02*
Y231000D01*
X230982D01*
X231982Y232000D01*
Y235998D01*
X230982Y236998D01*
X227983D01*
X233981Y234999D02*
Y231000D01*
Y232999D01*
X234981Y233999D01*
X235981Y234999D01*
X236980D01*
X239979Y231000D02*
X241979D01*
X240979D01*
Y234999D01*
X239979D01*
X244978D02*
X246977Y231000D01*
X248976Y234999D01*
X253975Y231000D02*
X251975D01*
X250976Y232000D01*
Y233999D01*
X251975Y234999D01*
X253975D01*
X254974Y233999D01*
Y232999D01*
X250976D01*
X256974Y234999D02*
Y231000D01*
Y232999D01*
X257974Y233999D01*
X258973Y234999D01*
X259973D01*
X409002Y34999D02*
X408002Y33999D01*
Y32000D01*
X409002Y31000D01*
X413000D01*
X414000Y32000D01*
Y33999D01*
X413000Y34999D01*
X411001D01*
Y32999D01*
X414000Y36998D02*
X408002D01*
X414000Y40997D01*
X408002D01*
Y42996D02*
X414000D01*
Y45995D01*
X413000Y46995D01*
X409002D01*
X408002Y45995D01*
Y42996D01*
X484000Y31000D02*
X478002D01*
X484000Y34999D01*
X478002D01*
X484000Y36998D02*
X483000D01*
Y37998D01*
X484000D01*
Y36998D01*
X479002Y45995D02*
X478002Y44995D01*
Y42996D01*
X479002Y41996D01*
X483000D01*
X484000Y42996D01*
Y44995D01*
X483000Y45995D01*
X484000Y47995D02*
X483000D01*
Y48994D01*
X484000D01*
Y47995D01*
X449000Y31000D02*
X443002D01*
X449000Y34999D01*
X443002D01*
X449000Y36998D02*
X448000D01*
Y37998D01*
X449000D01*
Y36998D01*
X443002Y44995D02*
Y42996D01*
X444002Y41996D01*
X448000D01*
X449000Y42996D01*
Y44995D01*
X448000Y45995D01*
X444002D01*
X443002Y44995D01*
X449000Y47995D02*
X448000D01*
Y48994D01*
X449000D01*
Y47995D01*
X36000Y311499D02*
X39999D01*
X37999Y313498D02*
Y309500D01*
X41998Y308500D02*
X43997D01*
X42998D01*
Y314498D01*
X41998Y313498D01*
X50995Y308500D02*
X46996D01*
X50995Y312499D01*
Y313498D01*
X49995Y314498D01*
X47996D01*
X46996Y313498D01*
X52995Y314498D02*
Y310499D01*
X54994Y308500D01*
X56993Y310499D01*
Y314498D01*
X39999Y348498D02*
X38999Y349498D01*
X37000D01*
X36000Y348498D01*
Y344500D01*
X37000Y343500D01*
X38999D01*
X39999Y344500D01*
Y346499D01*
X37999D01*
X41998Y343500D02*
Y349498D01*
X45997Y343500D01*
Y349498D01*
X47996D02*
Y343500D01*
X50995D01*
X51995Y344500D01*
Y348498D01*
X50995Y349498D01*
X47996D01*
X34999Y149498D02*
X33999Y150498D01*
X32000D01*
X31000Y149498D01*
Y145499D01*
X32000Y144500D01*
X33999D01*
X34999Y145499D01*
X36998Y144500D02*
Y148498D01*
X38997Y150498D01*
X40997Y148498D01*
Y144500D01*
Y147499D01*
X36998D01*
X42996Y144500D02*
Y150498D01*
X46995Y144500D01*
Y150498D01*
X48994Y143500D02*
X52993D01*
X54992Y150498D02*
Y144500D01*
Y147499D01*
X58991D01*
Y150498D01*
Y144500D01*
X34999Y184498D02*
X33999Y185498D01*
X32000D01*
X31000Y184498D01*
Y180499D01*
X32000Y179500D01*
X33999D01*
X34999Y180499D01*
X36998Y179500D02*
Y183498D01*
X38997Y185498D01*
X40997Y183498D01*
Y179500D01*
Y182499D01*
X36998D01*
X42996Y179500D02*
Y185498D01*
X46995Y179500D01*
Y185498D01*
X48994Y178500D02*
X52993D01*
X54992Y185498D02*
Y179500D01*
X58991D01*
X249499Y184998D02*
X245500D01*
Y181999D01*
X247499D01*
X245500D01*
Y179000D01*
X251498Y184998D02*
X255497D01*
Y183998D01*
X251498Y180000D01*
Y179000D01*
X249499Y212998D02*
X245500D01*
Y209999D01*
X247499D01*
X245500D01*
Y207000D01*
X255497Y212998D02*
X253497Y211998D01*
X251498Y209999D01*
Y208000D01*
X252498Y207000D01*
X254497D01*
X255497Y208000D01*
Y208999D01*
X254497Y209999D01*
X251498D01*
X182502Y45499D02*
Y40501D01*
X183502Y39501D01*
X185502D01*
X186501Y40501D01*
Y45499D01*
X188500Y39501D02*
X190500D01*
X189500D01*
Y45499D01*
X188500Y44499D01*
X197498Y39501D02*
X193499D01*
X197498Y43500D01*
Y44499D01*
X196498Y45499D01*
X194499D01*
X193499Y44499D01*
X216002Y45499D02*
Y40501D01*
X217002Y39501D01*
X219001D01*
X220001Y40501D01*
Y45499D01*
X222000Y39501D02*
X224000D01*
X223000D01*
Y45499D01*
X222000Y44499D01*
X226998Y39501D02*
X228998D01*
X227998D01*
Y45499D01*
X226998Y44499D01*
X242502Y45499D02*
Y40501D01*
X243502Y39501D01*
X245501D01*
X246501Y40501D01*
Y45499D01*
X248500Y39501D02*
X250500D01*
X249500D01*
Y45499D01*
X248500Y44499D01*
X253499D02*
X254499Y45499D01*
X256498D01*
X257498Y44499D01*
Y40501D01*
X256498Y39501D01*
X254499D01*
X253499Y40501D01*
Y44499D01*
X391400Y304398D02*
Y299400D01*
X392400Y298400D01*
X394399D01*
X395399Y299400D01*
Y304398D01*
X397398Y299400D02*
X398398Y298400D01*
X400397D01*
X401397Y299400D01*
Y303398D01*
X400397Y304398D01*
X398398D01*
X397398Y303398D01*
Y302399D01*
X398398Y301399D01*
X401397D01*
X270002Y45499D02*
Y40501D01*
X271001Y39501D01*
X273001D01*
X274000Y40501D01*
Y45499D01*
X276000Y44499D02*
X276999Y45499D01*
X278999D01*
X279998Y44499D01*
Y43500D01*
X278999Y42500D01*
X279998Y41500D01*
Y40501D01*
X278999Y39501D01*
X276999D01*
X276000Y40501D01*
Y41500D01*
X276999Y42500D01*
X276000Y43500D01*
Y44499D01*
X276999Y42500D02*
X278999D01*
X297502Y45499D02*
Y40501D01*
X298501Y39501D01*
X300501D01*
X301500Y40501D01*
Y45499D01*
X303500D02*
X307498D01*
Y44499D01*
X303500Y40501D01*
Y39501D01*
X371300Y299098D02*
Y294100D01*
X372300Y293100D01*
X374299D01*
X375299Y294100D01*
Y299098D01*
X381297D02*
X379297Y298098D01*
X377298Y296099D01*
Y294100D01*
X378298Y293100D01*
X380297D01*
X381297Y294100D01*
Y295099D01*
X380297Y296099D01*
X377298D01*
X322502Y45499D02*
Y40501D01*
X323501Y39501D01*
X325501D01*
X326500Y40501D01*
Y45499D01*
X332498D02*
X328500D01*
Y42500D01*
X330499Y43500D01*
X331499D01*
X332498Y42500D01*
Y40501D01*
X331499Y39501D01*
X329499D01*
X328500Y40501D01*
X347502Y45499D02*
Y40501D01*
X348501Y39501D01*
X350501D01*
X351500Y40501D01*
Y45499D01*
X356499Y39501D02*
Y45499D01*
X353500Y42500D01*
X357498D01*
X295002Y127999D02*
Y123001D01*
X296001Y122001D01*
X298001D01*
X299000Y123001D01*
Y127999D01*
X301000Y126999D02*
X301999Y127999D01*
X303999D01*
X304998Y126999D01*
Y126000D01*
X303999Y125000D01*
X302999D01*
X303999D01*
X304998Y124000D01*
Y123001D01*
X303999Y122001D01*
X301999D01*
X301000Y123001D01*
X375002Y45499D02*
Y40501D01*
X376001Y39501D01*
X378001D01*
X379000Y40501D01*
Y45499D01*
X384998Y39501D02*
X381000D01*
X384998Y43500D01*
Y44499D01*
X383999Y45499D01*
X381999D01*
X381000Y44499D01*
X201001Y365499D02*
Y360501D01*
X202001Y359501D01*
X204000D01*
X205000Y360501D01*
Y365499D01*
X206999Y359501D02*
X208999D01*
X207999D01*
Y365499D01*
X206999Y364499D01*
X439499Y282998D02*
X438499Y283998D01*
X436500D01*
X435500Y282998D01*
Y281999D01*
X436500Y280999D01*
X438499D01*
X439499Y279999D01*
Y279000D01*
X438499Y278000D01*
X436500D01*
X435500Y279000D01*
X444497Y278000D02*
Y283998D01*
X441498Y280999D01*
X445497D01*
X370899Y281998D02*
X369899Y282998D01*
X367900D01*
X366900Y281998D01*
Y280999D01*
X367900Y279999D01*
X369899D01*
X370899Y278999D01*
Y278000D01*
X369899Y277000D01*
X367900D01*
X366900Y278000D01*
X372898Y281998D02*
X373898Y282998D01*
X375897D01*
X376897Y281998D01*
Y280999D01*
X375897Y279999D01*
X374897D01*
X375897D01*
X376897Y278999D01*
Y278000D01*
X375897Y277000D01*
X373898D01*
X372898Y278000D01*
X309999Y193498D02*
X308999Y194498D01*
X307000D01*
X306000Y193498D01*
Y192499D01*
X307000Y191499D01*
X308999D01*
X309999Y190499D01*
Y189500D01*
X308999Y188500D01*
X307000D01*
X306000Y189500D01*
X315997Y188500D02*
X311998D01*
X315997Y192499D01*
Y193498D01*
X314997Y194498D01*
X312998D01*
X311998Y193498D01*
X250000Y291999D02*
X249000Y292999D01*
X247001D01*
X246001Y291999D01*
Y291000D01*
X247001Y290000D01*
X249000D01*
X250000Y289000D01*
Y288001D01*
X249000Y287001D01*
X247001D01*
X246001Y288001D01*
X251999Y287001D02*
X253999D01*
X252999D01*
Y292999D01*
X251999Y291999D01*
X180002Y99501D02*
Y105499D01*
X183001D01*
X184001Y104499D01*
Y102500D01*
X183001Y101500D01*
X180002D01*
X182002D02*
X184001Y99501D01*
X186001D02*
X188000D01*
X187000D01*
Y105499D01*
X186001Y104499D01*
X190999Y100501D02*
X191999Y99501D01*
X193998D01*
X194998Y100501D01*
Y104499D01*
X193998Y105499D01*
X191999D01*
X190999Y104499D01*
Y103500D01*
X191999Y102500D01*
X194998D01*
X207502Y99501D02*
Y105499D01*
X210502D01*
X211501Y104499D01*
Y102500D01*
X210502Y101500D01*
X207502D01*
X209502D02*
X211501Y99501D01*
X213500D02*
X215500D01*
X214500D01*
Y105499D01*
X213500Y104499D01*
X218499D02*
X219498Y105499D01*
X221498D01*
X222498Y104499D01*
Y103500D01*
X221498Y102500D01*
X222498Y101500D01*
Y100501D01*
X221498Y99501D01*
X219498D01*
X218499Y100501D01*
Y101500D01*
X219498Y102500D01*
X218499Y103500D01*
Y104499D01*
X219498Y102500D02*
X221498D01*
X235002Y99501D02*
Y105499D01*
X238001D01*
X239001Y104499D01*
Y102500D01*
X238001Y101500D01*
X235002D01*
X237002D02*
X239001Y99501D01*
X241001D02*
X243000D01*
X242000D01*
Y105499D01*
X241001Y104499D01*
X245999Y105499D02*
X249998D01*
Y104499D01*
X245999Y100501D01*
Y99501D01*
X265002D02*
Y105499D01*
X268002D01*
X269001Y104499D01*
Y102500D01*
X268002Y101500D01*
X265002D01*
X267002D02*
X269001Y99501D01*
X271001D02*
X273000D01*
X272000D01*
Y105499D01*
X271001Y104499D01*
X279998Y105499D02*
X277998Y104499D01*
X275999Y102500D01*
Y100501D01*
X276998Y99501D01*
X278998D01*
X279998Y100501D01*
Y101500D01*
X278998Y102500D01*
X275999D01*
X422700Y361000D02*
Y366998D01*
X425699D01*
X426699Y365998D01*
Y363999D01*
X425699Y362999D01*
X422700D01*
X424699D02*
X426699Y361000D01*
X428698D02*
X430697D01*
X429698D01*
Y366998D01*
X428698Y365998D01*
X437695Y366998D02*
X433696D01*
Y363999D01*
X435696Y364999D01*
X436695D01*
X437695Y363999D01*
Y362000D01*
X436695Y361000D01*
X434696D01*
X433696Y362000D01*
X422700Y341000D02*
Y346998D01*
X425699D01*
X426699Y345998D01*
Y343999D01*
X425699Y342999D01*
X422700D01*
X424699D02*
X426699Y341000D01*
X428698D02*
X430697D01*
X429698D01*
Y346998D01*
X428698Y345998D01*
X436695Y341000D02*
Y346998D01*
X433696Y343999D01*
X437695D01*
X422700Y321000D02*
Y326998D01*
X425699D01*
X426699Y325998D01*
Y323999D01*
X425699Y322999D01*
X422700D01*
X424699D02*
X426699Y321000D01*
X428698D02*
X430697D01*
X429698D01*
Y326998D01*
X428698Y325998D01*
X433696D02*
X434696Y326998D01*
X436695D01*
X437695Y325998D01*
Y324999D01*
X436695Y323999D01*
X435696D01*
X436695D01*
X437695Y322999D01*
Y322000D01*
X436695Y321000D01*
X434696D01*
X433696Y322000D01*
X422700Y301000D02*
Y306998D01*
X425699D01*
X426699Y305998D01*
Y303999D01*
X425699Y302999D01*
X422700D01*
X424699D02*
X426699Y301000D01*
X428698D02*
X430697D01*
X429698D01*
Y306998D01*
X428698Y305998D01*
X437695Y301000D02*
X433696D01*
X437695Y304999D01*
Y305998D01*
X436695Y306998D01*
X434696D01*
X433696Y305998D01*
X390100Y307400D02*
Y313398D01*
X393099D01*
X394099Y312398D01*
Y310399D01*
X393099Y309399D01*
X390100D01*
X392099D02*
X394099Y307400D01*
X396098D02*
X398097D01*
X397098D01*
Y313398D01*
X396098Y312398D01*
X401096Y307400D02*
X403096D01*
X402096D01*
Y313398D01*
X401096Y312398D01*
X287502Y99501D02*
Y105499D01*
X290501D01*
X291501Y104499D01*
Y102500D01*
X290501Y101500D01*
X287502D01*
X289502D02*
X291501Y99501D01*
X293500D02*
X295500D01*
X294500D01*
Y105499D01*
X293500Y104499D01*
X298499D02*
X299499Y105499D01*
X301498D01*
X302498Y104499D01*
Y100501D01*
X301498Y99501D01*
X299499D01*
X298499Y100501D01*
Y104499D01*
X317502Y99501D02*
Y105499D01*
X320501D01*
X321500Y104499D01*
Y102500D01*
X320501Y101500D01*
X317502D01*
X319501D02*
X321500Y99501D01*
X323500Y100501D02*
X324499Y99501D01*
X326499D01*
X327498Y100501D01*
Y104499D01*
X326499Y105499D01*
X324499D01*
X323500Y104499D01*
Y103500D01*
X324499Y102500D01*
X327498D01*
X442600Y360900D02*
Y366898D01*
X445599D01*
X446599Y365898D01*
Y363899D01*
X445599Y362899D01*
X442600D01*
X444599D02*
X446599Y360900D01*
X448598Y365898D02*
X449598Y366898D01*
X451597D01*
X452597Y365898D01*
Y364899D01*
X451597Y363899D01*
X452597Y362899D01*
Y361900D01*
X451597Y360900D01*
X449598D01*
X448598Y361900D01*
Y362899D01*
X449598Y363899D01*
X448598Y364899D01*
Y365898D01*
X449598Y363899D02*
X451597D01*
X442600Y340900D02*
Y346898D01*
X445599D01*
X446599Y345898D01*
Y343899D01*
X445599Y342899D01*
X442600D01*
X444599D02*
X446599Y340900D01*
X448598Y346898D02*
X452597D01*
Y345898D01*
X448598Y341900D01*
Y340900D01*
X442600Y320900D02*
Y326898D01*
X445599D01*
X446599Y325898D01*
Y323899D01*
X445599Y322899D01*
X442600D01*
X444599D02*
X446599Y320900D01*
X452597Y326898D02*
X450597Y325898D01*
X448598Y323899D01*
Y321900D01*
X449598Y320900D01*
X451597D01*
X452597Y321900D01*
Y322899D01*
X451597Y323899D01*
X448598D01*
X442600Y300900D02*
Y306898D01*
X445599D01*
X446599Y305898D01*
Y303899D01*
X445599Y302899D01*
X442600D01*
X444599D02*
X446599Y300900D01*
X452597Y306898D02*
X448598D01*
Y303899D01*
X450597Y304899D01*
X451597D01*
X452597Y303899D01*
Y301900D01*
X451597Y300900D01*
X449598D01*
X448598Y301900D01*
X370100Y303400D02*
Y309398D01*
X373099D01*
X374099Y308398D01*
Y306399D01*
X373099Y305399D01*
X370100D01*
X372099D02*
X374099Y303400D01*
X379097D02*
Y309398D01*
X376098Y306399D01*
X380097D01*
X347502Y99501D02*
Y105499D01*
X350501D01*
X351500Y104499D01*
Y102500D01*
X350501Y101500D01*
X347502D01*
X349501D02*
X351500Y99501D01*
X353500Y104499D02*
X354499Y105499D01*
X356499D01*
X357498Y104499D01*
Y103500D01*
X356499Y102500D01*
X355499D01*
X356499D01*
X357498Y101500D01*
Y100501D01*
X356499Y99501D01*
X354499D01*
X353500Y100501D01*
X375002Y99501D02*
Y105499D01*
X378001D01*
X379000Y104499D01*
Y102500D01*
X378001Y101500D01*
X375002D01*
X377001D02*
X379000Y99501D01*
X384998D02*
X381000D01*
X384998Y103500D01*
Y104499D01*
X383999Y105499D01*
X381999D01*
X381000Y104499D01*
X281001Y124501D02*
Y130499D01*
X284000D01*
X285000Y129499D01*
Y127500D01*
X284000Y126500D01*
X281001D01*
X283001D02*
X285000Y124501D01*
X286999D02*
X288999D01*
X287999D01*
Y130499D01*
X286999Y129499D01*
X5049Y209198D02*
X3049D01*
X4049D01*
Y204200D01*
X3049Y203200D01*
X2050D01*
X1050Y204200D01*
X7048Y203200D02*
X9047D01*
X8048D01*
Y209198D01*
X7048Y208198D01*
X16045Y203200D02*
X12046D01*
X16045Y207199D01*
Y208198D01*
X15045Y209198D01*
X13046D01*
X12046Y208198D01*
X5049Y174198D02*
X3049D01*
X4049D01*
Y169200D01*
X3049Y168200D01*
X2050D01*
X1050Y169200D01*
X7048Y168200D02*
X9047D01*
X8048D01*
Y174198D01*
X7048Y173198D01*
X12046Y168200D02*
X14046D01*
X13046D01*
Y174198D01*
X12046Y173198D01*
X204001Y30499D02*
X202002D01*
X203001D01*
Y25501D01*
X202002Y24501D01*
X201002D01*
X200002Y25501D01*
X206000Y24501D02*
X208000D01*
X207000D01*
Y30499D01*
X206000Y29499D01*
X210999D02*
X211999Y30499D01*
X213998D01*
X214998Y29499D01*
Y25501D01*
X213998Y24501D01*
X211999D01*
X210999Y25501D01*
Y29499D01*
X399000Y195499D02*
X397001D01*
X398001D01*
Y190501D01*
X397001Y189501D01*
X396001D01*
X395002Y190501D01*
X401000D02*
X401999Y189501D01*
X403999D01*
X404998Y190501D01*
Y194499D01*
X403999Y195499D01*
X401999D01*
X401000Y194499D01*
Y193500D01*
X401999Y192500D01*
X404998D01*
X441500Y195499D02*
X439501D01*
X440501D01*
Y190501D01*
X439501Y189501D01*
X438501D01*
X437502Y190501D01*
X443500Y194499D02*
X444499Y195499D01*
X446499D01*
X447498Y194499D01*
Y193500D01*
X446499Y192500D01*
X447498Y191500D01*
Y190501D01*
X446499Y189501D01*
X444499D01*
X443500Y190501D01*
Y191500D01*
X444499Y192500D01*
X443500Y193500D01*
Y194499D01*
X444499Y192500D02*
X446499D01*
X469000Y282999D02*
X467001D01*
X468001D01*
Y278001D01*
X467001Y277001D01*
X466001D01*
X465002Y278001D01*
X471000Y282999D02*
X474998D01*
Y281999D01*
X471000Y278001D01*
Y277001D01*
X479000Y195499D02*
X477001D01*
X478001D01*
Y190501D01*
X477001Y189501D01*
X476001D01*
X475002Y190501D01*
X484998Y195499D02*
X482999Y194499D01*
X481000Y192500D01*
Y190501D01*
X481999Y189501D01*
X483999D01*
X484998Y190501D01*
Y191500D01*
X483999Y192500D01*
X481000D01*
X349199Y360798D02*
X347199D01*
X348199D01*
Y355800D01*
X347199Y354800D01*
X346200D01*
X345200Y355800D01*
X355197Y360798D02*
X351198D01*
Y357799D01*
X353197Y358799D01*
X354197D01*
X355197Y357799D01*
Y355800D01*
X354197Y354800D01*
X352198D01*
X351198Y355800D01*
X279199Y360798D02*
X277199D01*
X278199D01*
Y355800D01*
X277199Y354800D01*
X276200D01*
X275200Y355800D01*
X284197Y354800D02*
Y360798D01*
X281198Y357799D01*
X285197D01*
X164000Y362999D02*
X162001D01*
X163001D01*
Y358001D01*
X162001Y357001D01*
X161001D01*
X160002Y358001D01*
X166000Y361999D02*
X166999Y362999D01*
X168999D01*
X169998Y361999D01*
Y361000D01*
X168999Y360000D01*
X167999D01*
X168999D01*
X169998Y359000D01*
Y358001D01*
X168999Y357001D01*
X166999D01*
X166000Y358001D01*
X4999Y50198D02*
X2999D01*
X3999D01*
Y45200D01*
X2999Y44200D01*
X2000D01*
X1000Y45200D01*
X10997Y44200D02*
X6998D01*
X10997Y48199D01*
Y49198D01*
X9997Y50198D01*
X7998D01*
X6998Y49198D01*
X162500Y302999D02*
X160501D01*
X161500D01*
Y298001D01*
X160501Y297001D01*
X159501D01*
X158501Y298001D01*
X164499Y297001D02*
X166499D01*
X165499D01*
Y302999D01*
X164499Y301999D01*
X249499Y156998D02*
X245500D01*
Y153999D01*
X247499D01*
X245500D01*
Y151000D01*
X255497Y156998D02*
X251498D01*
Y153999D01*
X253497Y154999D01*
X254497D01*
X255497Y153999D01*
Y152000D01*
X254497Y151000D01*
X252498D01*
X251498Y152000D01*
X159000Y50499D02*
X155002D01*
Y47500D01*
X157001D01*
X155002D01*
Y44501D01*
X163999D02*
Y50499D01*
X161000Y47500D01*
X164998D01*
X86500Y45499D02*
X82502D01*
Y42500D01*
X84501D01*
X82502D01*
Y39501D01*
X88500Y44499D02*
X89499Y45499D01*
X91499D01*
X92498Y44499D01*
Y43500D01*
X91499Y42500D01*
X90499D01*
X91499D01*
X92498Y41500D01*
Y40501D01*
X91499Y39501D01*
X89499D01*
X88500Y40501D01*
X29000Y50499D02*
X25002D01*
Y47500D01*
X27001D01*
X25002D01*
Y44501D01*
X34998D02*
X31000D01*
X34998Y48500D01*
Y49499D01*
X33999Y50499D01*
X31999D01*
X31000Y49499D01*
X172500Y315499D02*
X168501D01*
Y312500D01*
X170501D01*
X168501D01*
Y309501D01*
X174499D02*
X176499D01*
X175499D01*
Y315499D01*
X174499Y314499D01*
X426599Y358398D02*
X425599Y359398D01*
X423600D01*
X422600Y358398D01*
Y354400D01*
X423600Y353400D01*
X425599D01*
X426599Y354400D01*
X428598Y358398D02*
X429598Y359398D01*
X431597D01*
X432597Y358398D01*
Y357399D01*
X431597Y356399D01*
X432597Y355399D01*
Y354400D01*
X431597Y353400D01*
X429598D01*
X428598Y354400D01*
Y355399D01*
X429598Y356399D01*
X428598Y357399D01*
Y358398D01*
X429598Y356399D02*
X431597D01*
X426599Y338398D02*
X425599Y339398D01*
X423600D01*
X422600Y338398D01*
Y334400D01*
X423600Y333400D01*
X425599D01*
X426599Y334400D01*
X428598Y339398D02*
X432597D01*
Y338398D01*
X428598Y334400D01*
Y333400D01*
X426599Y318398D02*
X425599Y319398D01*
X423600D01*
X422600Y318398D01*
Y314400D01*
X423600Y313400D01*
X425599D01*
X426599Y314400D01*
X432597Y319398D02*
X430597Y318398D01*
X428598Y316399D01*
Y314400D01*
X429598Y313400D01*
X431597D01*
X432597Y314400D01*
Y315399D01*
X431597Y316399D01*
X428598D01*
X426599Y298398D02*
X425599Y299398D01*
X423600D01*
X422600Y298398D01*
Y294400D01*
X423600Y293400D01*
X425599D01*
X426599Y294400D01*
X432597Y299398D02*
X428598D01*
Y296399D01*
X430597Y297399D01*
X431597D01*
X432597Y296399D01*
Y294400D01*
X431597Y293400D01*
X429598D01*
X428598Y294400D01*
X216500Y316999D02*
X215501Y317999D01*
X213501D01*
X212502Y316999D01*
Y313001D01*
X213501Y312001D01*
X215501D01*
X216500Y313001D01*
X221499Y312001D02*
Y317999D01*
X218500Y315000D01*
X222498D01*
X171500Y334499D02*
X170501Y335499D01*
X168501D01*
X167502Y334499D01*
Y330501D01*
X168501Y329501D01*
X170501D01*
X171500Y330501D01*
X173500Y334499D02*
X174499Y335499D01*
X176499D01*
X177498Y334499D01*
Y333500D01*
X176499Y332500D01*
X175499D01*
X176499D01*
X177498Y331500D01*
Y330501D01*
X176499Y329501D01*
X174499D01*
X173500Y330501D01*
X219000Y364499D02*
X218001Y365499D01*
X216001D01*
X215002Y364499D01*
Y360501D01*
X216001Y359501D01*
X218001D01*
X219000Y360501D01*
X224998Y359501D02*
X221000D01*
X224998Y363500D01*
Y364499D01*
X223999Y365499D01*
X221999D01*
X221000Y364499D01*
X187500Y324499D02*
X186500Y325499D01*
X184501D01*
X183501Y324499D01*
Y320501D01*
X184501Y319501D01*
X186500D01*
X187500Y320501D01*
X189499Y319501D02*
X191499D01*
X190499D01*
Y325499D01*
X189499Y324499D01*
X187250Y201998D02*
X191249Y198000D01*
X187250D02*
X191249Y201998D01*
X187250Y199999D02*
X191249D01*
X189249Y198000D02*
Y201998D01*
X193248Y197000D02*
X195247D01*
X194248D01*
Y202998D01*
X193248Y201998D01*
D15*
X4500Y284500D02*
X7166D01*
X5833D01*
Y292497D01*
X4500Y291164D01*
X16496Y284500D02*
X11164D01*
X16496Y289832D01*
Y291164D01*
X15163Y292497D01*
X12497D01*
X11164Y291164D01*
X19162Y292497D02*
Y287166D01*
X21828Y284500D01*
X24494Y287166D01*
Y292497D01*
X35157Y284500D02*
Y292497D01*
X39156D01*
X40488Y291164D01*
Y288499D01*
X39156Y287166D01*
X35157D01*
X44487Y284500D02*
X47153D01*
X48486Y285833D01*
Y288499D01*
X47153Y289832D01*
X44487D01*
X43154Y288499D01*
Y285833D01*
X44487Y284500D01*
X51152Y289832D02*
Y285833D01*
X52485Y284500D01*
X53817Y285833D01*
X55150Y284500D01*
X56483Y285833D01*
Y289832D01*
X63148Y284500D02*
X60482D01*
X59149Y285833D01*
Y288499D01*
X60482Y289832D01*
X63148D01*
X64481Y288499D01*
Y287166D01*
X59149D01*
X67146Y289832D02*
Y284500D01*
Y287166D01*
X68479Y288499D01*
X69812Y289832D01*
X71145D01*
X9832Y126164D02*
X8499Y127497D01*
X5833D01*
X4500Y126164D01*
Y120833D01*
X5833Y119500D01*
X8499D01*
X9832Y120833D01*
X12497Y119500D02*
Y124832D01*
X15163Y127497D01*
X17829Y124832D01*
Y119500D01*
Y123499D01*
X12497D01*
X20495Y119500D02*
Y127497D01*
X25826Y119500D01*
Y127497D01*
X36490D02*
Y119500D01*
Y123499D01*
X41821D01*
Y127497D01*
Y119500D01*
X48486D02*
X45820D01*
X44487Y120833D01*
Y123499D01*
X45820Y124832D01*
X48486D01*
X49819Y123499D01*
Y122166D01*
X44487D01*
X53817Y124832D02*
X56483D01*
X57816Y123499D01*
Y119500D01*
X53817D01*
X52485Y120833D01*
X53817Y122166D01*
X57816D01*
X65813Y127497D02*
Y119500D01*
X61815D01*
X60482Y120833D01*
Y123499D01*
X61815Y124832D01*
X65813D01*
X72478Y119500D02*
X69812D01*
X68479Y120833D01*
Y123499D01*
X69812Y124832D01*
X72478D01*
X73811Y123499D01*
Y122166D01*
X68479D01*
X76477Y124832D02*
Y119500D01*
Y122166D01*
X77810Y123499D01*
X79142Y124832D01*
X80475D01*
M02*
