M48
;Layer_Color=9474304
;FILE_FORMAT=2:5
INCH,TZ
;TYPE=PLATED
T1F00S00C0.02800
T2F00S00C0.03346
T3F00S00C0.04000
T4F00S00C0.04094
T5F00S00C0.05000
T6F00S00C0.05118
T7F00S00C0.05500
T8F00S00C0.06300
T9F00S00C0.12500
T10F00S00C0.20000
%
T01
X179000Y80000
Y85000
Y90000
X184000
Y95000
X179000
X206500
X211500
Y90000
X206500
Y85000
Y80000
X234000
Y85000
Y90000
X239000
Y95000
X234000
X261500
Y90000
Y85000
Y80000
X266500Y90000
Y95000
X289000
Y90000
Y85000
Y80000
X294000Y90000
Y95000
X297500Y105000
X290000
X285000Y120000
X316500Y95000
Y90000
Y85000
Y80000
X321500Y90000
Y95000
X330500Y101500
X332000Y109500
X342000Y112000
X349500Y113500
X349000Y95000
Y90000
X344000
Y85000
Y80000
Y95000
X371500
Y90000
Y85000
Y80000
X376500Y90000
Y95000
X355500Y179500
X370030Y299530
X391929Y305429
X412000Y301000
X420000Y295000
Y287500
Y307500
X311000Y265500
X305500Y258500
X300000Y253000
X290500Y258500
X293000Y240000
X296755Y213245
X303000Y213000
X254000Y264000
X211000
Y273000
X203500Y196000
X208000Y314000
X197000Y363000
X191000
X185000
X179000
X164000Y331000
X268000Y335500
X308500Y355000
X318000Y342000
X325500
X398000Y316000
X420000Y315000
Y327500
Y335000
Y347500
Y355000
T02
X190000Y284157
Y303842
X235000Y330157
Y349843
T03
X191750Y138500
Y148500
Y158500
Y168500
Y178500
Y188500
T04
X350000Y232500
Y242500
Y252500
Y262500
Y272500
Y282500
Y292500
Y302500
X280000
Y292500
Y282500
Y272500
Y262500
Y252500
Y242500
Y232500
Y312500
Y322500
Y332500
Y342500
X350000
Y332500
Y322500
Y312500
T05
X357000Y190000
Y199000
X366000Y196000
Y187000
X381000Y219000
Y228000
X391000
Y219000
T06
X10935Y20472
X30620
X50305
X69990
X89675
X109360
X129045
X148730
X168415
X188100
X224675Y22500
X244360
X264045
X283730
X303415
X323100
X342785
X362470
X482500Y295315
Y315000
Y334685
Y354370
T07
X325984Y128878
X318110Y152500
X374016Y128878
X491122Y205984
Y254016
X467500Y261890
X443878Y254016
X422500Y253031
X398878Y260906
X375256Y253031
Y205000
X374016Y176122
X325984
X422500Y205000
X443878Y205984
T08
X43900Y55800
X57300
X87300
X100700
X126300
X139700
Y94200
X126300
X100700
X87300
X57300
X43900
X252800Y128300
Y141700
X291200
Y128300
Y156300
Y169700
Y184300
Y197700
X252800
Y184300
Y169700
Y156300
T09
X119250Y148500
X410600Y143500
Y112500
X445600
Y143500
X480600
Y112500
Y172000
X445600
X410600
X119250Y183500
X120000Y312500
X146000
Y347500
X120000
T10
X167500Y115000
X67500Y257500
X380000Y330000
M30
