G04*
G04 #@! TF.GenerationSoftware,Altium Limited,Altium Designer,21.6.4 (81)*
G04*
G04 Layer_Color=8388736*
%FSLAX25Y25*%
%MOIN*%
G70*
G04*
G04 #@! TF.SameCoordinates,954FB955-D8E7-4683-B3BB-D37EB7A61878*
G04*
G04*
G04 #@! TF.FilePolarity,Negative*
G04*
G01*
G75*
%ADD30R,0.04461X0.04225*%
%ADD31R,0.05200X0.02600*%
%ADD32R,0.04225X0.04461*%
%ADD33R,0.05524X0.07099*%
%ADD34R,0.13792X0.07099*%
%ADD35R,0.05131X0.06233*%
%ADD36R,0.04698X0.04461*%
%ADD37R,0.07099X0.06312*%
%ADD38R,0.06233X0.05131*%
%ADD39R,0.22965X0.24776*%
%ADD40R,0.04619X0.11942*%
%ADD41R,0.02600X0.05200*%
%ADD42R,0.04343X0.04619*%
%ADD43R,0.04540X0.04461*%
%ADD44C,0.09800*%
%ADD45C,0.08477*%
%ADD46R,0.08477X0.08477*%
%ADD47R,0.08477X0.08477*%
%ADD48C,0.17300*%
%ADD49C,0.05524*%
%ADD50R,0.05524X0.05524*%
%ADD51C,0.20800*%
%ADD52C,0.08800*%
%ADD53C,0.06800*%
%ADD54C,0.06942*%
%ADD55R,0.06942X0.06942*%
%ADD56C,0.05300*%
%ADD57C,0.30800*%
D30*
X286000Y111429D02*
D03*
Y117571D02*
D03*
D31*
X299800Y115500D02*
D03*
X292200Y112900D02*
D03*
Y118100D02*
D03*
D32*
X377529Y85000D02*
D03*
X383671D02*
D03*
X350029D02*
D03*
X356171D02*
D03*
X322529D02*
D03*
X328671D02*
D03*
X295029D02*
D03*
X301171D02*
D03*
X267529D02*
D03*
X273671D02*
D03*
X240029D02*
D03*
X246171D02*
D03*
X212529D02*
D03*
X218671D02*
D03*
X185029D02*
D03*
X191171D02*
D03*
X378071Y297500D02*
D03*
X371929D02*
D03*
X450571Y355000D02*
D03*
X444429D02*
D03*
X450571Y335000D02*
D03*
X444429D02*
D03*
X450571Y315000D02*
D03*
X444429D02*
D03*
X450571Y295000D02*
D03*
X444429D02*
D03*
X398071Y301500D02*
D03*
X391929D02*
D03*
D33*
X179045Y75098D02*
D03*
X188100D02*
D03*
X197155D02*
D03*
X206545D02*
D03*
X215600D02*
D03*
X224655D02*
D03*
X234045D02*
D03*
X243100D02*
D03*
X252155D02*
D03*
X261545D02*
D03*
X270600D02*
D03*
X279655D02*
D03*
X289045D02*
D03*
X298100D02*
D03*
X307155D02*
D03*
X316545D02*
D03*
X325600D02*
D03*
X334655D02*
D03*
X344045D02*
D03*
X353100D02*
D03*
X362155D02*
D03*
X371545D02*
D03*
X380600D02*
D03*
X389655D02*
D03*
D34*
X188100Y49902D02*
D03*
X215600D02*
D03*
X243100D02*
D03*
X270600D02*
D03*
X298100D02*
D03*
X325600D02*
D03*
X353100D02*
D03*
X380600D02*
D03*
D35*
X164102Y325000D02*
D03*
X170898D02*
D03*
D36*
X165000Y315531D02*
D03*
Y309469D02*
D03*
D37*
X217465Y273000D02*
D03*
Y281858D02*
D03*
Y264142D02*
D03*
X250535D02*
D03*
Y281858D02*
D03*
D38*
X208000Y318602D02*
D03*
Y325398D02*
D03*
D39*
X187500Y352382D02*
D03*
D40*
X196516Y326201D02*
D03*
X178484D02*
D03*
D41*
X377500Y287500D02*
D03*
X372300D02*
D03*
X374900Y279900D02*
D03*
X397600Y292800D02*
D03*
X392400D02*
D03*
X395000Y285200D02*
D03*
D42*
X424508Y355000D02*
D03*
X430492D02*
D03*
X424508Y335000D02*
D03*
X430492D02*
D03*
X424508Y315000D02*
D03*
X430492D02*
D03*
X424508Y295000D02*
D03*
X430492D02*
D03*
D43*
X424594Y347500D02*
D03*
X430406D02*
D03*
X424594Y327500D02*
D03*
X430406D02*
D03*
X424594Y307500D02*
D03*
X430406D02*
D03*
X424594Y287500D02*
D03*
X430406D02*
D03*
D44*
X291200Y197700D02*
D03*
Y184300D02*
D03*
X252800Y197700D02*
D03*
Y184300D02*
D03*
X291200Y169700D02*
D03*
Y156300D02*
D03*
X252800Y169700D02*
D03*
Y156300D02*
D03*
X126300Y94200D02*
D03*
X139700D02*
D03*
X126300Y55800D02*
D03*
X139700D02*
D03*
X87300Y94200D02*
D03*
X100700D02*
D03*
X87300Y55800D02*
D03*
X100700D02*
D03*
X43900Y94200D02*
D03*
X57300D02*
D03*
X43900Y55800D02*
D03*
X57300D02*
D03*
X291200Y141700D02*
D03*
Y128300D02*
D03*
X252800Y141700D02*
D03*
Y128300D02*
D03*
D45*
X482500Y354370D02*
D03*
Y334685D02*
D03*
Y315000D02*
D03*
X224675Y22500D02*
D03*
X244360D02*
D03*
X264045D02*
D03*
X283730D02*
D03*
X303415D02*
D03*
X323100D02*
D03*
X342785D02*
D03*
X30620Y20472D02*
D03*
X50305D02*
D03*
X69990D02*
D03*
X89675D02*
D03*
X109360D02*
D03*
X129045D02*
D03*
X148730D02*
D03*
X168415D02*
D03*
X188100D02*
D03*
D46*
X482500Y295315D02*
D03*
D47*
X362470Y22500D02*
D03*
X10935Y20472D02*
D03*
D48*
X480600Y172000D02*
D03*
Y143500D02*
D03*
Y112500D02*
D03*
X445600D02*
D03*
Y143500D02*
D03*
Y172000D02*
D03*
X410600D02*
D03*
Y143500D02*
D03*
Y112500D02*
D03*
D49*
X190000Y284157D02*
D03*
X235000Y349843D02*
D03*
D50*
X190000Y303842D02*
D03*
X235000Y330157D02*
D03*
D51*
X120000Y347500D02*
D03*
X146000D02*
D03*
X120000Y312500D02*
D03*
X146000D02*
D03*
X119250Y148500D02*
D03*
Y183500D02*
D03*
D52*
X467500Y261890D02*
D03*
X443878Y254016D02*
D03*
X374016Y128878D02*
D03*
X325984D02*
D03*
X318110Y152500D02*
D03*
X325984Y176122D02*
D03*
X374016D02*
D03*
X375256Y205000D02*
D03*
Y253031D02*
D03*
X398878Y260906D02*
D03*
X422500Y253031D02*
D03*
Y205000D02*
D03*
X443878Y205984D02*
D03*
X491122Y254016D02*
D03*
Y205984D02*
D03*
X366000Y196000D02*
D03*
Y187000D02*
D03*
X357000Y199000D02*
D03*
Y190000D02*
D03*
X381000Y219000D02*
D03*
Y228000D02*
D03*
X391000Y219000D02*
D03*
Y228000D02*
D03*
D53*
X191750Y138500D02*
D03*
Y148500D02*
D03*
Y158500D02*
D03*
Y188500D02*
D03*
Y178500D02*
D03*
Y168500D02*
D03*
D54*
X350000Y302500D02*
D03*
Y312500D02*
D03*
Y322500D02*
D03*
Y332500D02*
D03*
Y252500D02*
D03*
Y262500D02*
D03*
Y272500D02*
D03*
Y282500D02*
D03*
Y292500D02*
D03*
Y242500D02*
D03*
Y232500D02*
D03*
X280000Y302500D02*
D03*
Y312500D02*
D03*
Y322500D02*
D03*
Y332500D02*
D03*
Y252500D02*
D03*
Y262500D02*
D03*
Y272500D02*
D03*
Y282500D02*
D03*
Y292500D02*
D03*
Y242500D02*
D03*
Y232500D02*
D03*
D55*
X350000Y342500D02*
D03*
X280000D02*
D03*
D56*
X355500Y179500D02*
D03*
X303000Y213000D02*
D03*
X296755Y213245D02*
D03*
X285000Y120000D02*
D03*
X290000Y105000D02*
D03*
X297500D02*
D03*
X211000Y273000D02*
D03*
Y264000D02*
D03*
X254000D02*
D03*
X420000Y327500D02*
D03*
X370030Y299530D02*
D03*
X342000Y112000D02*
D03*
X349500Y113500D02*
D03*
X330500Y101500D02*
D03*
X332000Y109500D02*
D03*
X311000Y265500D02*
D03*
X412000Y301000D02*
D03*
X268000Y335500D02*
D03*
X308500Y355000D02*
D03*
X398000Y316000D02*
D03*
X318000Y342000D02*
D03*
X290500Y258500D02*
D03*
X305500D02*
D03*
X293000Y240000D02*
D03*
X300000Y253000D02*
D03*
X325500Y342000D02*
D03*
X203500Y196000D02*
D03*
X391929Y305429D02*
D03*
X420000Y287500D02*
D03*
Y295000D02*
D03*
Y307500D02*
D03*
Y315000D02*
D03*
Y335000D02*
D03*
Y347500D02*
D03*
Y355000D02*
D03*
X371500Y80000D02*
D03*
Y85000D02*
D03*
Y90000D02*
D03*
X376500D02*
D03*
X371500Y95000D02*
D03*
X376500D02*
D03*
X344000Y80000D02*
D03*
Y85000D02*
D03*
Y90000D02*
D03*
X349000D02*
D03*
X344000Y95000D02*
D03*
X349000D02*
D03*
X316500Y80000D02*
D03*
Y85000D02*
D03*
Y90000D02*
D03*
X321500D02*
D03*
X316500Y95000D02*
D03*
X321500D02*
D03*
X289000Y80000D02*
D03*
Y85000D02*
D03*
Y90000D02*
D03*
X294000D02*
D03*
X289000Y95000D02*
D03*
X294000D02*
D03*
X261500Y80000D02*
D03*
Y85000D02*
D03*
Y90000D02*
D03*
X266500D02*
D03*
X261500Y95000D02*
D03*
X266500D02*
D03*
X179000Y80000D02*
D03*
Y85000D02*
D03*
Y90000D02*
D03*
X184000D02*
D03*
X179000Y95000D02*
D03*
X184000D02*
D03*
X234000Y80000D02*
D03*
Y85000D02*
D03*
Y90000D02*
D03*
X239000D02*
D03*
X234000Y95000D02*
D03*
X239000D02*
D03*
X211500D02*
D03*
X206500D02*
D03*
X211500Y90000D02*
D03*
X206500D02*
D03*
Y85000D02*
D03*
Y80000D02*
D03*
X197000Y363000D02*
D03*
X191000D02*
D03*
X185000D02*
D03*
X179000D02*
D03*
X164000Y331000D02*
D03*
X208000Y314000D02*
D03*
D57*
X380000Y330000D02*
D03*
X167500Y115000D02*
D03*
X67500Y257500D02*
D03*
M02*
