G04*
G04 #@! TF.GenerationSoftware,Altium Limited,Altium Designer,21.6.4 (81)*
G04*
G04 Layer_Physical_Order=1*
G04 Layer_Color=255*
%FSLAX25Y25*%
%MOIN*%
G70*
G04*
G04 #@! TF.SameCoordinates,954FB955-D8E7-4683-B3BB-D37EB7A61878*
G04*
G04*
G04 #@! TF.FilePolarity,Positive*
G04*
G01*
G75*
%ADD15C,0.02000*%
%ADD16R,0.03661X0.03425*%
%ADD17R,0.04400X0.01800*%
%ADD18R,0.03425X0.03661*%
%ADD19R,0.04724X0.06299*%
%ADD20R,0.12992X0.06299*%
%ADD21R,0.04331X0.05433*%
%ADD22R,0.03898X0.03661*%
%ADD23R,0.06299X0.05512*%
%ADD24R,0.05433X0.04331*%
%ADD26R,0.03819X0.11142*%
%ADD27R,0.01800X0.04400*%
%ADD28R,0.03543X0.03819*%
%ADD29R,0.03740X0.03661*%
%ADD58R,0.22165X0.23976*%
%ADD59C,0.15000*%
%ADD60C,0.09000*%
%ADD61C,0.12500*%
%ADD62C,0.04000*%
%ADD63C,0.05000*%
%ADD64C,0.10000*%
%ADD65C,0.11000*%
%ADD66R,0.17000X0.17000*%
%ADD67R,0.21000X0.21000*%
%ADD68R,0.55000X1.26000*%
%ADD69R,1.73000X0.57000*%
%ADD70R,0.69000X0.86500*%
%ADD71R,0.42500X1.10500*%
%ADD72R,0.05000X0.15500*%
%ADD73R,0.10000X0.14500*%
%ADD74R,0.19000X0.43000*%
%ADD75R,0.33000X0.23500*%
%ADD76R,0.53000X0.59000*%
%ADD77R,0.31000X0.23000*%
%ADD78R,0.51000X0.32000*%
%ADD79R,0.29000X0.35000*%
%ADD80R,0.27000X0.58000*%
%ADD81R,0.73000X0.32000*%
%ADD82R,1.02500X0.51500*%
%ADD83R,0.95000X1.53500*%
%ADD84R,1.58000X0.49000*%
%ADD85C,0.09000*%
%ADD86C,0.07677*%
%ADD87R,0.07677X0.07677*%
%ADD88R,0.07677X0.07677*%
%ADD89C,0.16500*%
%ADD90C,0.04724*%
%ADD91R,0.04724X0.04724*%
%ADD92C,0.20000*%
%ADD93C,0.08000*%
%ADD94C,0.06000*%
%ADD95C,0.06142*%
%ADD96R,0.06142X0.06142*%
%ADD97C,0.04500*%
%ADD98C,0.30000*%
D15*
X355500Y124500D02*
Y179500D01*
Y124500D02*
X383671Y96329D01*
X303000Y213000D02*
Y213086D01*
X306669Y216755D01*
Y218169D02*
X331000Y242500D01*
X306669Y216755D02*
Y218169D01*
X296755Y213755D02*
X335500Y252500D01*
X350000D01*
X296755Y213245D02*
Y213755D01*
X334000Y123000D02*
Y168106D01*
X304850Y120000D02*
X331000D01*
X334000Y123000D01*
X325984Y176122D02*
X334000Y168106D01*
X279655Y82845D02*
Y202155D01*
X350000Y272500D01*
X268500Y118500D02*
Y206500D01*
X322500Y260500D02*
Y294500D01*
X330500Y258500D02*
Y277500D01*
X276000Y111000D02*
Y204000D01*
X326500Y259500D02*
Y289828D01*
X268500Y206500D02*
X322500Y260500D01*
X272000Y205000D02*
X326500Y259500D01*
X276000Y204000D02*
X330500Y258500D01*
X272000Y114500D02*
Y205000D01*
X270000Y105000D02*
X276000Y111000D01*
X267500Y110000D02*
X272000Y114500D01*
X198672Y115000D02*
X265000D01*
X227500Y110000D02*
X267500D01*
X253327Y105000D02*
X270000D01*
X265000Y115000D02*
X268500Y118500D01*
X273671Y85000D02*
X277500D01*
X300350Y115500D02*
X304850Y120000D01*
X285478Y118093D02*
Y119522D01*
Y118093D02*
X286000Y117571D01*
X285000Y120000D02*
X285478Y119522D01*
X286000Y117571D02*
X290571D01*
X291299Y112900D02*
X292100D01*
X290000Y105000D02*
Y105676D01*
X292200Y107877D01*
X292100Y112900D02*
X292200Y112800D01*
Y107877D02*
Y112800D01*
X291299Y112900D02*
X292200D01*
X299800Y115500D02*
X300350D01*
X297500Y105000D02*
X307000Y114500D01*
X333010D01*
X197500Y83500D02*
Y113828D01*
X198672Y115000D01*
X224655Y107155D02*
X227500Y110000D01*
X224655Y83345D02*
Y107155D01*
X252155Y103828D02*
X253327Y105000D01*
X252155Y82845D02*
Y103828D01*
X211000Y264000D02*
X211142Y264142D01*
X211000Y273000D02*
X217465D01*
X211142Y264142D02*
X217465D01*
X252291Y280102D02*
X253898D01*
X250535Y281858D02*
X252291Y280102D01*
X253898D02*
X270000Y264000D01*
Y235500D02*
Y264000D01*
X268000Y274500D02*
X280000Y262500D01*
X268000Y274500D02*
Y335500D01*
X420000Y327500D02*
X424594D01*
X330500Y354000D02*
X383500D01*
X414644Y322856D02*
X423162D01*
X383500Y354000D02*
X414644Y322856D01*
X328500Y358500D02*
X399000D01*
X416000Y341500D02*
X429000D01*
X399000Y358500D02*
X416000Y341500D01*
X360000Y317500D02*
Y347000D01*
Y317500D02*
X377358Y300142D01*
Y298213D02*
Y300142D01*
Y298213D02*
X378071Y297500D01*
X370030Y299517D02*
X371929Y297618D01*
X370030Y299517D02*
Y299530D01*
X378071Y289171D02*
Y297618D01*
X357000Y350000D02*
X360000Y347000D01*
X371929Y288971D02*
Y297618D01*
X333010Y114500D02*
X335392Y112118D01*
X341882D01*
X342000Y112000D01*
X355500Y85671D02*
X356171Y85000D01*
X355500Y85671D02*
Y108177D01*
X350177Y113500D02*
X355500Y108177D01*
X349500Y113500D02*
X350177D01*
X317412Y101500D02*
X330500D01*
X316912Y102000D02*
X317412Y101500D01*
X304500Y102000D02*
X316912D01*
X332382Y109118D02*
X335043D01*
X339000Y105161D01*
X332000Y109500D02*
X332382Y109118D01*
X311000Y265500D02*
Y288500D01*
X307000Y292500D02*
X311000Y288500D01*
X280000Y292500D02*
X307000D01*
X430500Y295008D02*
Y298000D01*
X430492Y295000D02*
X430500Y295008D01*
X412000Y301000D02*
X427500D01*
X430500Y298000D01*
X270000Y235500D02*
X273000Y232500D01*
X280000Y322500D02*
X308022Y350522D01*
Y354522D01*
X308500Y355000D01*
X398035Y301535D02*
Y315965D01*
X398000Y316000D02*
X398035Y315965D01*
Y301535D02*
X398071Y301500D01*
X423162Y322856D02*
X428306Y317711D01*
Y317324D02*
X430492Y315138D01*
X428306Y317324D02*
Y317711D01*
X293000Y330000D02*
X326000Y363000D01*
X429321D01*
X293000Y320000D02*
Y330000D01*
X280000Y302500D02*
X296500D01*
X344000Y350000D02*
X357000D01*
X296500Y302500D02*
X344000Y350000D01*
X318000Y342000D02*
Y348000D01*
X328500Y358500D01*
X290500Y247000D02*
Y258500D01*
X286000Y242500D02*
X290500Y247000D01*
X280000Y242500D02*
X286000D01*
X289543Y280957D02*
X305500Y265000D01*
X282663Y280957D02*
X289543D01*
X305500Y258500D02*
Y265000D01*
X280000Y282500D02*
X281121D01*
X282663Y280957D01*
X300000Y253000D02*
Y258000D01*
X285500Y272500D02*
X300000Y258000D01*
X280000Y272500D02*
X285500D01*
X331000Y242500D02*
X350000D01*
X325500Y342000D02*
Y349000D01*
X301171Y98671D02*
X304500Y102000D01*
X339000Y95329D02*
Y105161D01*
X328671Y85000D02*
X339000Y95329D01*
X301171Y85000D02*
Y98671D01*
X273000Y232500D02*
X280000D01*
X330500Y277500D02*
X335500Y282500D01*
X350000D01*
X326500Y289828D02*
X327672Y291000D01*
X347379D02*
X348879Y292500D01*
X327672Y291000D02*
X347379D01*
X348879Y292500D02*
X350000D01*
X322500Y294500D02*
X330500Y302500D01*
X350000D01*
X383671Y85000D02*
Y96329D01*
X325500Y349000D02*
X330500Y354000D01*
X430492Y355000D02*
Y361828D01*
X429321Y363000D02*
X430492Y361828D01*
Y315000D02*
Y315138D01*
X372300Y287500D02*
Y288600D01*
X371929Y288971D02*
X372300Y288600D01*
X430492Y335000D02*
Y340008D01*
X429000Y341500D02*
X430492Y340008D01*
X391929Y301500D02*
Y305429D01*
X392000Y305500D01*
X377500Y287500D02*
Y288600D01*
X378071Y289171D01*
X391929Y294371D02*
X392400Y293900D01*
X391929Y294371D02*
Y301500D01*
X392400Y292800D02*
Y293900D01*
X397600D02*
X398071Y294371D01*
Y301500D01*
X397600Y292800D02*
Y293900D01*
X286186Y313186D02*
X293000Y320000D01*
X280686Y313186D02*
X286186D01*
X280000Y312500D02*
X280686Y313186D01*
X420000Y287500D02*
X424594D01*
X420000Y295000D02*
X424508D01*
X420000Y307500D02*
X424594D01*
X420000Y315000D02*
X424508D01*
X420000Y335000D02*
X424508D01*
X420000Y347500D02*
X424594D01*
X420000Y355000D02*
X424508D01*
X430492D02*
X444429D01*
X430449Y354957D02*
X430492Y355000D01*
X430449Y347543D02*
Y354957D01*
X430406Y347500D02*
X430449Y347543D01*
X430492Y335000D02*
X444429D01*
X430449Y334957D02*
X430492Y335000D01*
X430449Y327543D02*
Y334957D01*
X430406Y327500D02*
X430449Y327543D01*
X430492Y315000D02*
X444429D01*
X430449Y307543D02*
Y314957D01*
X430492Y315000D01*
X430406Y307500D02*
X430449Y307543D01*
Y287543D02*
Y294957D01*
X430492Y295000D01*
X430406Y287500D02*
X430449Y287543D01*
X430492Y295000D02*
X444429D01*
X450571D02*
X482185D01*
X482500Y295315D01*
X450571Y315000D02*
X482500D01*
X450571Y335000D02*
X450728Y334842D01*
X482342D01*
X482500Y334685D01*
X450571Y355000D02*
X450886Y354685D01*
X482185D01*
X482500Y354370D01*
X291100Y112900D02*
X291950D01*
X291000Y112601D02*
Y112800D01*
X286000Y111429D02*
X289828D01*
X291000Y112601D01*
Y112800D02*
X291100Y112900D01*
Y118100D02*
X292200D01*
X290571Y117571D02*
X291100Y118100D01*
X197155Y75098D02*
X197500Y75443D01*
Y83500D01*
X196000Y85000D02*
X197500Y83500D01*
X191171Y85000D02*
X196000D01*
X390000Y75443D02*
Y83000D01*
X389655Y75098D02*
X390000Y75443D01*
X388000Y85000D02*
X390000Y83000D01*
X383671Y85000D02*
X388000D01*
X362500Y75443D02*
Y83000D01*
X362155Y75098D02*
X362500Y75443D01*
X356171Y85000D02*
X360500D01*
X362500Y83000D01*
X334500Y75253D02*
X334655Y75098D01*
X334500Y75253D02*
Y83000D01*
X332500Y85000D02*
X334500Y83000D01*
X328671Y85000D02*
X332500D01*
X307155Y75098D02*
X307500Y75443D01*
Y83000D01*
X305500Y85000D02*
X307500Y83000D01*
X301171Y85000D02*
X305500D01*
X277500D02*
X279655Y82845D01*
Y75098D02*
Y82845D01*
X246171Y85000D02*
X250000D01*
X252155Y75098D02*
Y82845D01*
X250000Y85000D02*
X252155Y82845D01*
X223000Y85000D02*
X224655Y83345D01*
Y75098D02*
Y83345D01*
X218671Y85000D02*
X223000D01*
X119250Y183500D02*
X124121D01*
X164102Y325000D02*
Y329898D01*
X164000Y330000D02*
X164102Y329898D01*
X208000Y314000D02*
Y318602D01*
X279500Y343000D02*
X280000Y342500D01*
X196516Y326201D02*
X197319Y325398D01*
X170898Y325035D02*
X172063Y326201D01*
X170898Y325000D02*
Y325035D01*
Y325000D02*
X171000Y324898D01*
X165000Y315531D02*
X165831Y316362D01*
X146000Y312500D02*
X149031Y309469D01*
X395000Y283000D02*
X399000Y279000D01*
X483000D01*
X491122Y270878D01*
X412000Y274000D02*
X422500Y263500D01*
X396272Y274000D02*
X412000D01*
X390372Y279900D02*
X396272Y274000D01*
X395000Y283000D02*
Y285200D01*
X422500Y253031D02*
Y263500D01*
X374900Y279900D02*
X390372D01*
X491122Y254016D02*
Y270878D01*
X318110Y136752D02*
Y152500D01*
Y136752D02*
X325984Y128878D01*
D16*
X286000Y111429D02*
D03*
Y117571D02*
D03*
D17*
X299800Y115500D02*
D03*
X292200Y112900D02*
D03*
Y118100D02*
D03*
D18*
X377529Y85000D02*
D03*
X383671D02*
D03*
X350029D02*
D03*
X356171D02*
D03*
X322529D02*
D03*
X328671D02*
D03*
X295029D02*
D03*
X301171D02*
D03*
X267529D02*
D03*
X273671D02*
D03*
X240029D02*
D03*
X246171D02*
D03*
X212529D02*
D03*
X218671D02*
D03*
X185029D02*
D03*
X191171D02*
D03*
X378071Y297500D02*
D03*
X371929D02*
D03*
X450571Y355000D02*
D03*
X444429D02*
D03*
X450571Y335000D02*
D03*
X444429D02*
D03*
X450571Y315000D02*
D03*
X444429D02*
D03*
X450571Y295000D02*
D03*
X444429D02*
D03*
X398071Y301500D02*
D03*
X391929D02*
D03*
D19*
X179045Y75098D02*
D03*
X188100D02*
D03*
X197155D02*
D03*
X206545D02*
D03*
X215600D02*
D03*
X224655D02*
D03*
X234045D02*
D03*
X243100D02*
D03*
X252155D02*
D03*
X261545D02*
D03*
X270600D02*
D03*
X279655D02*
D03*
X289045D02*
D03*
X298100D02*
D03*
X307155D02*
D03*
X316545D02*
D03*
X325600D02*
D03*
X334655D02*
D03*
X344045D02*
D03*
X353100D02*
D03*
X362155D02*
D03*
X371545D02*
D03*
X380600D02*
D03*
X389655D02*
D03*
D20*
X188100Y49902D02*
D03*
X215600D02*
D03*
X243100D02*
D03*
X270600D02*
D03*
X298100D02*
D03*
X325600D02*
D03*
X353100D02*
D03*
X380600D02*
D03*
D21*
X164102Y325000D02*
D03*
X170898D02*
D03*
D22*
X165000Y315531D02*
D03*
Y309469D02*
D03*
D23*
X217465Y273000D02*
D03*
Y281858D02*
D03*
Y264142D02*
D03*
X250535D02*
D03*
Y281858D02*
D03*
D24*
X208000Y318602D02*
D03*
Y325398D02*
D03*
D26*
X196516Y326201D02*
D03*
X178484D02*
D03*
D27*
X377500Y287500D02*
D03*
X372300D02*
D03*
X374900Y279900D02*
D03*
X397600Y292800D02*
D03*
X392400D02*
D03*
X395000Y285200D02*
D03*
D28*
X424508Y355000D02*
D03*
X430492D02*
D03*
X424508Y335000D02*
D03*
X430492D02*
D03*
X424508Y315000D02*
D03*
X430492D02*
D03*
X424508Y295000D02*
D03*
X430492D02*
D03*
D29*
X424594Y347500D02*
D03*
X430406D02*
D03*
X424594Y327500D02*
D03*
X430406D02*
D03*
X424594Y307500D02*
D03*
X430406D02*
D03*
X424594Y287500D02*
D03*
X430406D02*
D03*
D58*
X187500Y352382D02*
D03*
D59*
X391000Y228000D02*
X417862D01*
X326000Y196000D02*
X362094D01*
X365301Y227030D02*
Y236902D01*
X375256Y246856D02*
Y253031D01*
X356271Y218000D02*
X365301Y227030D01*
Y236902D02*
X375256Y246856D01*
X324000Y218000D02*
X356271D01*
X307000Y201000D02*
X324000Y218000D01*
X299700Y169700D02*
X326000Y196000D01*
X391004Y253031D02*
X398878Y260906D01*
X375256Y253031D02*
X391004D01*
X417862Y228000D02*
X443878Y254016D01*
X294500Y201000D02*
X307000D01*
X451752Y261890D02*
X467500D01*
X443878Y254016D02*
X451752Y261890D01*
D60*
X366000Y187000D02*
Y196000D01*
D61*
X291200Y169700D02*
X299700D01*
X291200Y197700D02*
X294500Y201000D01*
X291200Y156300D02*
Y169700D01*
X454178Y215000D02*
X462500Y206678D01*
X450772Y215000D02*
X454178D01*
X422500Y205000D02*
X434734Y217234D01*
X448538D02*
X450772Y215000D01*
X434734Y217234D02*
X448538D01*
X291200Y184300D02*
Y197700D01*
X462500Y161800D02*
X480700Y143600D01*
X462500Y161800D02*
Y206678D01*
X444841Y110841D02*
Y112500D01*
X428000Y94000D02*
X444841Y110841D01*
X401000Y94000D02*
X428000D01*
X390256Y190000D02*
X420000D01*
X427500Y182500D01*
Y164100D02*
Y182500D01*
Y164100D02*
X445000Y146600D01*
X375256Y205000D02*
X390256Y190000D01*
X374016Y120984D02*
X401000Y94000D01*
X465100Y128000D02*
X480600Y112500D01*
X374016Y153484D02*
X399500Y128000D01*
X374016Y153484D02*
Y176122D01*
Y120984D02*
Y128878D01*
D62*
X262500Y343000D02*
X279500D01*
X249658Y330157D02*
X262500Y343000D01*
X235000Y330157D02*
X249658D01*
X293000Y240000D02*
X293096Y240096D01*
X295596D01*
X317500Y262000D01*
Y310000D01*
X203500Y144500D02*
Y196000D01*
X191750Y138500D02*
X197500D01*
X203500Y144500D01*
X317500Y310000D02*
X350000Y342500D01*
X208000Y325398D02*
X230240D01*
X235000Y330157D01*
X197319Y325398D02*
X208000D01*
X149031Y309469D02*
X165000D01*
X172063Y326201D02*
X178484D01*
X171000Y318000D02*
Y324898D01*
X165831Y316362D02*
X169362D01*
X171000Y318000D01*
X178484Y315358D02*
X190000Y303842D01*
X178484Y315358D02*
Y326201D01*
D63*
X129121Y188500D02*
X191750D01*
X124121Y183500D02*
X129121Y188500D01*
X149250Y178500D02*
X191750D01*
X119250Y148500D02*
X149250Y178500D01*
D64*
X222500Y22500D02*
X224675D01*
X195098Y49902D02*
X222500Y22500D01*
X188100Y49902D02*
X195098D01*
X362470Y22500D02*
Y31417D01*
X380600Y49547D01*
X342785Y22500D02*
Y39587D01*
X353100Y49902D01*
X303415Y22500D02*
Y44232D01*
X298100Y49547D02*
X303415Y44232D01*
X298100Y49547D02*
Y49902D01*
X215600D02*
X216958D01*
X244360Y22500D01*
X264045D02*
Y28602D01*
X243100Y49547D02*
Y49902D01*
Y49547D02*
X264045Y28602D01*
X270600Y49547D02*
Y49902D01*
Y49547D02*
X283730Y36417D01*
Y22500D02*
Y36417D01*
X325600Y25000D02*
Y49902D01*
X323100Y22500D02*
X325600Y25000D01*
X380600Y49547D02*
Y49902D01*
X445000Y142500D02*
Y146600D01*
D65*
X399500Y128000D02*
X465100D01*
D66*
X361500Y191500D02*
D03*
D67*
X386500Y223500D02*
D03*
D68*
X236500Y183000D02*
D03*
D69*
X177500Y229500D02*
D03*
D70*
X125500Y285250D02*
D03*
D71*
X23250Y272750D02*
D03*
D72*
X371500Y84250D02*
D03*
X344000D02*
D03*
X316500D02*
D03*
X289000D02*
D03*
X261500D02*
D03*
X179000D02*
D03*
X234000D02*
D03*
X206500D02*
D03*
D73*
X374000Y90250D02*
D03*
X346500D02*
D03*
X319000D02*
D03*
X291500D02*
D03*
X264000D02*
D03*
X181500D02*
D03*
X236500D02*
D03*
X209000D02*
D03*
D74*
X321500Y145500D02*
D03*
D75*
X301000Y135750D02*
D03*
D76*
X30500Y35500D02*
D03*
D77*
X49500Y53500D02*
D03*
D78*
X89500Y22000D02*
D03*
D79*
X93500Y46500D02*
D03*
D80*
X134500Y35000D02*
D03*
D81*
X157500Y22000D02*
D03*
D82*
X96250Y105750D02*
D03*
D83*
X49500Y156750D02*
D03*
D84*
X81000Y304500D02*
D03*
D85*
X291200Y197700D02*
D03*
Y184300D02*
D03*
X252800Y197700D02*
D03*
Y184300D02*
D03*
X291200Y169700D02*
D03*
Y156300D02*
D03*
X252800Y169700D02*
D03*
Y156300D02*
D03*
X126300Y94200D02*
D03*
X139700D02*
D03*
X126300Y55800D02*
D03*
X139700D02*
D03*
X87300Y94200D02*
D03*
X100700D02*
D03*
X87300Y55800D02*
D03*
X100700D02*
D03*
X43900Y94200D02*
D03*
X57300D02*
D03*
X43900Y55800D02*
D03*
X57300D02*
D03*
X291200Y141700D02*
D03*
Y128300D02*
D03*
X252800Y141700D02*
D03*
Y128300D02*
D03*
D86*
X482500Y354370D02*
D03*
Y334685D02*
D03*
Y315000D02*
D03*
X224675Y22500D02*
D03*
X244360D02*
D03*
X264045D02*
D03*
X283730D02*
D03*
X303415D02*
D03*
X323100D02*
D03*
X342785D02*
D03*
X30620Y20472D02*
D03*
X50305D02*
D03*
X69990D02*
D03*
X89675D02*
D03*
X109360D02*
D03*
X129045D02*
D03*
X148730D02*
D03*
X168415D02*
D03*
X188100D02*
D03*
D87*
X482500Y295315D02*
D03*
D88*
X362470Y22500D02*
D03*
X10935Y20472D02*
D03*
D89*
X480600Y172000D02*
D03*
Y143500D02*
D03*
Y112500D02*
D03*
X445600D02*
D03*
Y143500D02*
D03*
Y172000D02*
D03*
X410600D02*
D03*
Y143500D02*
D03*
Y112500D02*
D03*
D90*
X190000Y284157D02*
D03*
X235000Y349843D02*
D03*
D91*
X190000Y303842D02*
D03*
X235000Y330157D02*
D03*
D92*
X120000Y347500D02*
D03*
X146000D02*
D03*
X120000Y312500D02*
D03*
X146000D02*
D03*
X119250Y148500D02*
D03*
Y183500D02*
D03*
D93*
X467500Y261890D02*
D03*
X443878Y254016D02*
D03*
X374016Y128878D02*
D03*
X325984D02*
D03*
X318110Y152500D02*
D03*
X325984Y176122D02*
D03*
X374016D02*
D03*
X375256Y205000D02*
D03*
Y253031D02*
D03*
X398878Y260906D02*
D03*
X422500Y253031D02*
D03*
Y205000D02*
D03*
X443878Y205984D02*
D03*
X491122Y254016D02*
D03*
Y205984D02*
D03*
X366000Y196000D02*
D03*
Y187000D02*
D03*
X357000Y199000D02*
D03*
Y190000D02*
D03*
X381000Y219000D02*
D03*
Y228000D02*
D03*
X391000Y219000D02*
D03*
Y228000D02*
D03*
D94*
X191750Y138500D02*
D03*
Y148500D02*
D03*
Y158500D02*
D03*
Y188500D02*
D03*
Y178500D02*
D03*
Y168500D02*
D03*
D95*
X350000Y302500D02*
D03*
Y312500D02*
D03*
Y322500D02*
D03*
Y332500D02*
D03*
Y252500D02*
D03*
Y262500D02*
D03*
Y272500D02*
D03*
Y282500D02*
D03*
Y292500D02*
D03*
Y242500D02*
D03*
Y232500D02*
D03*
X280000Y302500D02*
D03*
Y312500D02*
D03*
Y322500D02*
D03*
Y332500D02*
D03*
Y252500D02*
D03*
Y262500D02*
D03*
Y272500D02*
D03*
Y282500D02*
D03*
Y292500D02*
D03*
Y242500D02*
D03*
Y232500D02*
D03*
D96*
X350000Y342500D02*
D03*
X280000D02*
D03*
D97*
X355500Y179500D02*
D03*
X303000Y213000D02*
D03*
X296755Y213245D02*
D03*
X285000Y120000D02*
D03*
X290000Y105000D02*
D03*
X297500D02*
D03*
X211000Y273000D02*
D03*
Y264000D02*
D03*
X254000D02*
D03*
X420000Y327500D02*
D03*
X370030Y299530D02*
D03*
X342000Y112000D02*
D03*
X349500Y113500D02*
D03*
X330500Y101500D02*
D03*
X332000Y109500D02*
D03*
X311000Y265500D02*
D03*
X412000Y301000D02*
D03*
X268000Y335500D02*
D03*
X308500Y355000D02*
D03*
X398000Y316000D02*
D03*
X318000Y342000D02*
D03*
X290500Y258500D02*
D03*
X305500D02*
D03*
X293000Y240000D02*
D03*
X300000Y253000D02*
D03*
X325500Y342000D02*
D03*
X203500Y196000D02*
D03*
X391929Y305429D02*
D03*
X420000Y287500D02*
D03*
Y295000D02*
D03*
Y307500D02*
D03*
Y315000D02*
D03*
Y335000D02*
D03*
Y347500D02*
D03*
Y355000D02*
D03*
X371500Y80000D02*
D03*
Y85000D02*
D03*
Y90000D02*
D03*
X376500D02*
D03*
X371500Y95000D02*
D03*
X376500D02*
D03*
X344000Y80000D02*
D03*
Y85000D02*
D03*
Y90000D02*
D03*
X349000D02*
D03*
X344000Y95000D02*
D03*
X349000D02*
D03*
X316500Y80000D02*
D03*
Y85000D02*
D03*
Y90000D02*
D03*
X321500D02*
D03*
X316500Y95000D02*
D03*
X321500D02*
D03*
X289000Y80000D02*
D03*
Y85000D02*
D03*
Y90000D02*
D03*
X294000D02*
D03*
X289000Y95000D02*
D03*
X294000D02*
D03*
X261500Y80000D02*
D03*
Y85000D02*
D03*
Y90000D02*
D03*
X266500D02*
D03*
X261500Y95000D02*
D03*
X266500D02*
D03*
X179000Y80000D02*
D03*
Y85000D02*
D03*
Y90000D02*
D03*
X184000D02*
D03*
X179000Y95000D02*
D03*
X184000D02*
D03*
X234000Y80000D02*
D03*
Y85000D02*
D03*
Y90000D02*
D03*
X239000D02*
D03*
X234000Y95000D02*
D03*
X239000D02*
D03*
X211500D02*
D03*
X206500D02*
D03*
X211500Y90000D02*
D03*
X206500D02*
D03*
Y85000D02*
D03*
Y80000D02*
D03*
X197000Y363000D02*
D03*
X191000D02*
D03*
X185000D02*
D03*
X179000D02*
D03*
X164000Y331000D02*
D03*
X208000Y314000D02*
D03*
D98*
X380000Y330000D02*
D03*
X167500Y115000D02*
D03*
X67500Y257500D02*
D03*
M02*
