G04*
G04 #@! TF.GenerationSoftware,Altium Limited,Altium Designer,21.6.4 (81)*
G04*
G04 Layer_Color=255*
%FSLAX25Y25*%
%MOIN*%
G70*
G04*
G04 #@! TF.SameCoordinates,954FB955-D8E7-4683-B3BB-D37EB7A61878*
G04*
G04*
G04 #@! TF.FilePolarity,Positive*
G04*
G01*
G75*
%ADD16R,0.03661X0.03425*%
%ADD17R,0.04400X0.01800*%
%ADD18R,0.03425X0.03661*%
%ADD19R,0.04724X0.06299*%
%ADD20R,0.12992X0.06299*%
%ADD21R,0.04331X0.05433*%
%ADD22R,0.03898X0.03661*%
%ADD23R,0.06299X0.05512*%
%ADD24R,0.05433X0.04331*%
%ADD26R,0.03819X0.11142*%
%ADD27R,0.01800X0.04400*%
%ADD28R,0.03543X0.03819*%
%ADD29R,0.03740X0.03661*%
%ADD58R,0.22165X0.23976*%
%ADD85C,0.09000*%
%ADD86C,0.07677*%
%ADD87R,0.07677X0.07677*%
%ADD88R,0.07677X0.07677*%
%ADD89C,0.16500*%
%ADD90C,0.04724*%
%ADD91R,0.04724X0.04724*%
%ADD92C,0.20000*%
%ADD93C,0.08000*%
%ADD94C,0.06000*%
%ADD95C,0.06142*%
%ADD96R,0.06142X0.06142*%
D16*
X286000Y111429D02*
D03*
Y117571D02*
D03*
D17*
X299800Y115500D02*
D03*
X292200Y112900D02*
D03*
Y118100D02*
D03*
D18*
X377529Y85000D02*
D03*
X383671D02*
D03*
X350029D02*
D03*
X356171D02*
D03*
X322529D02*
D03*
X328671D02*
D03*
X295029D02*
D03*
X301171D02*
D03*
X267529D02*
D03*
X273671D02*
D03*
X240029D02*
D03*
X246171D02*
D03*
X212529D02*
D03*
X218671D02*
D03*
X185029D02*
D03*
X191171D02*
D03*
X378071Y297500D02*
D03*
X371929D02*
D03*
X450571Y355000D02*
D03*
X444429D02*
D03*
X450571Y335000D02*
D03*
X444429D02*
D03*
X450571Y315000D02*
D03*
X444429D02*
D03*
X450571Y295000D02*
D03*
X444429D02*
D03*
X398071Y301500D02*
D03*
X391929D02*
D03*
D19*
X179045Y75098D02*
D03*
X188100D02*
D03*
X197155D02*
D03*
X206545D02*
D03*
X215600D02*
D03*
X224655D02*
D03*
X234045D02*
D03*
X243100D02*
D03*
X252155D02*
D03*
X261545D02*
D03*
X270600D02*
D03*
X279655D02*
D03*
X289045D02*
D03*
X298100D02*
D03*
X307155D02*
D03*
X316545D02*
D03*
X325600D02*
D03*
X334655D02*
D03*
X344045D02*
D03*
X353100D02*
D03*
X362155D02*
D03*
X371545D02*
D03*
X380600D02*
D03*
X389655D02*
D03*
D20*
X188100Y49902D02*
D03*
X215600D02*
D03*
X243100D02*
D03*
X270600D02*
D03*
X298100D02*
D03*
X325600D02*
D03*
X353100D02*
D03*
X380600D02*
D03*
D21*
X164102Y325000D02*
D03*
X170898D02*
D03*
D22*
X165000Y315531D02*
D03*
Y309469D02*
D03*
D23*
X217465Y273000D02*
D03*
Y281858D02*
D03*
Y264142D02*
D03*
X250535D02*
D03*
Y281858D02*
D03*
D24*
X208000Y318602D02*
D03*
Y325398D02*
D03*
D26*
X196516Y326201D02*
D03*
X178484D02*
D03*
D27*
X377500Y287500D02*
D03*
X372300D02*
D03*
X374900Y279900D02*
D03*
X397600Y292800D02*
D03*
X392400D02*
D03*
X395000Y285200D02*
D03*
D28*
X424508Y355000D02*
D03*
X430492D02*
D03*
X424508Y335000D02*
D03*
X430492D02*
D03*
X424508Y315000D02*
D03*
X430492D02*
D03*
X424508Y295000D02*
D03*
X430492D02*
D03*
D29*
X424594Y347500D02*
D03*
X430406D02*
D03*
X424594Y327500D02*
D03*
X430406D02*
D03*
X424594Y307500D02*
D03*
X430406D02*
D03*
X424594Y287500D02*
D03*
X430406D02*
D03*
D58*
X187500Y352382D02*
D03*
D85*
X291200Y197700D02*
D03*
Y184300D02*
D03*
X252800Y197700D02*
D03*
Y184300D02*
D03*
X291200Y169700D02*
D03*
Y156300D02*
D03*
X252800Y169700D02*
D03*
Y156300D02*
D03*
X126300Y94200D02*
D03*
X139700D02*
D03*
X126300Y55800D02*
D03*
X139700D02*
D03*
X87300Y94200D02*
D03*
X100700D02*
D03*
X87300Y55800D02*
D03*
X100700D02*
D03*
X43900Y94200D02*
D03*
X57300D02*
D03*
X43900Y55800D02*
D03*
X57300D02*
D03*
X291200Y141700D02*
D03*
Y128300D02*
D03*
X252800Y141700D02*
D03*
Y128300D02*
D03*
D86*
X482500Y354370D02*
D03*
Y334685D02*
D03*
Y315000D02*
D03*
X224675Y22500D02*
D03*
X244360D02*
D03*
X264045D02*
D03*
X283730D02*
D03*
X303415D02*
D03*
X323100D02*
D03*
X342785D02*
D03*
X30620Y20472D02*
D03*
X50305D02*
D03*
X69990D02*
D03*
X89675D02*
D03*
X109360D02*
D03*
X129045D02*
D03*
X148730D02*
D03*
X168415D02*
D03*
X188100D02*
D03*
D87*
X482500Y295315D02*
D03*
D88*
X362470Y22500D02*
D03*
X10935Y20472D02*
D03*
D89*
X480600Y172000D02*
D03*
Y143500D02*
D03*
Y112500D02*
D03*
X445600D02*
D03*
Y143500D02*
D03*
Y172000D02*
D03*
X410600D02*
D03*
Y143500D02*
D03*
Y112500D02*
D03*
D90*
X190000Y284157D02*
D03*
X235000Y349843D02*
D03*
D91*
X190000Y303842D02*
D03*
X235000Y330157D02*
D03*
D92*
X120000Y347500D02*
D03*
X146000D02*
D03*
X120000Y312500D02*
D03*
X146000D02*
D03*
X119250Y148500D02*
D03*
Y183500D02*
D03*
D93*
X467500Y261890D02*
D03*
X443878Y254016D02*
D03*
X374016Y128878D02*
D03*
X325984D02*
D03*
X318110Y152500D02*
D03*
X325984Y176122D02*
D03*
X374016D02*
D03*
X375256Y205000D02*
D03*
Y253031D02*
D03*
X398878Y260906D02*
D03*
X422500Y253031D02*
D03*
Y205000D02*
D03*
X443878Y205984D02*
D03*
X491122Y254016D02*
D03*
Y205984D02*
D03*
D94*
X191750Y138500D02*
D03*
Y148500D02*
D03*
Y158500D02*
D03*
Y188500D02*
D03*
Y178500D02*
D03*
Y168500D02*
D03*
D95*
X350000Y302500D02*
D03*
Y312500D02*
D03*
Y322500D02*
D03*
Y332500D02*
D03*
Y252500D02*
D03*
Y262500D02*
D03*
Y272500D02*
D03*
Y282500D02*
D03*
Y292500D02*
D03*
Y242500D02*
D03*
Y232500D02*
D03*
X280000Y302500D02*
D03*
Y312500D02*
D03*
Y322500D02*
D03*
Y332500D02*
D03*
Y252500D02*
D03*
Y262500D02*
D03*
Y272500D02*
D03*
Y282500D02*
D03*
Y292500D02*
D03*
Y242500D02*
D03*
Y232500D02*
D03*
D96*
X350000Y342500D02*
D03*
X280000D02*
D03*
M02*
