G04*
G04 #@! TF.GenerationSoftware,Altium Limited,Altium Designer,21.6.4 (81)*
G04*
G04 Layer_Physical_Order=2*
G04 Layer_Color=16711680*
%FSLAX25Y25*%
%MOIN*%
G70*
G04*
G04 #@! TF.SameCoordinates,954FB955-D8E7-4683-B3BB-D37EB7A61878*
G04*
G04*
G04 #@! TF.FilePolarity,Positive*
G04*
G01*
G75*
%ADD15C,0.02000*%
%ADD61C,0.12500*%
%ADD62C,0.04000*%
%ADD85C,0.09000*%
%ADD86C,0.07677*%
%ADD87R,0.07677X0.07677*%
%ADD88R,0.07677X0.07677*%
%ADD89C,0.16500*%
%ADD90C,0.04724*%
%ADD91R,0.04724X0.04724*%
%ADD92C,0.20000*%
%ADD93C,0.08000*%
%ADD94C,0.06000*%
%ADD95C,0.06142*%
%ADD96R,0.06142X0.06142*%
%ADD97C,0.04500*%
%ADD98C,0.30000*%
%ADD99R,0.19000X0.19000*%
%ADD100R,0.10000X0.03000*%
%ADD101R,0.17000X0.17930*%
%ADD102R,0.27500X0.47500*%
%ADD103R,0.20000X0.47500*%
G36*
X497500Y217500D02*
Y213520D01*
X470000D01*
X469610Y213442D01*
X469279Y213221D01*
X469058Y212890D01*
X468980Y212500D01*
Y165000D01*
X469058Y164610D01*
X469279Y164279D01*
X469610Y164058D01*
X470000Y163980D01*
X475953D01*
X476219Y163803D01*
X477902Y163105D01*
X479689Y162750D01*
X481511D01*
X483298Y163105D01*
X484981Y163803D01*
X485247Y163980D01*
X497500D01*
Y2500D01*
X372500D01*
Y37500D01*
X2500D01*
Y365000D01*
X278493D01*
X278645Y364500D01*
X278558Y364442D01*
X267558Y353442D01*
X267558Y353442D01*
X266558Y352442D01*
X266116Y351780D01*
X265961Y351000D01*
Y338057D01*
X265399Y337495D01*
X264971Y336754D01*
X264750Y335928D01*
Y335072D01*
X264971Y334246D01*
X265399Y333505D01*
X266004Y332899D01*
X266746Y332471D01*
X267572Y332250D01*
X268428D01*
X269254Y332471D01*
X269995Y332899D01*
X270601Y333505D01*
X271028Y334246D01*
X271250Y335072D01*
Y335928D01*
X271028Y336754D01*
X270601Y337495D01*
X270039Y338057D01*
Y350155D01*
X270442Y350558D01*
X270442Y350558D01*
X280845Y360961D01*
X311557D01*
X311606Y360461D01*
X311220Y360384D01*
X310558Y359942D01*
X308866Y358250D01*
X308072D01*
X307246Y358029D01*
X306505Y357601D01*
X305899Y356996D01*
X305471Y356254D01*
X305250Y355428D01*
Y354572D01*
X305471Y353746D01*
X305899Y353005D01*
X306505Y352399D01*
X307246Y351972D01*
X308072Y351750D01*
X308928D01*
X309754Y351972D01*
X310495Y352399D01*
X311101Y353005D01*
X311528Y353746D01*
X311750Y354572D01*
Y355366D01*
X312845Y356461D01*
X379155D01*
X395961Y339655D01*
Y334273D01*
X395461Y334194D01*
X394828Y336142D01*
X393684Y338386D01*
X392204Y340423D01*
X390423Y342204D01*
X388386Y343684D01*
X386142Y344828D01*
X383747Y345606D01*
X381259Y346000D01*
X378741D01*
X376253Y345606D01*
X373858Y344828D01*
X371614Y343684D01*
X369577Y342204D01*
X367796Y340423D01*
X366316Y338386D01*
X365172Y336142D01*
X364394Y333747D01*
X364000Y331259D01*
Y328741D01*
X364394Y326253D01*
X365172Y323858D01*
X366316Y321614D01*
X367796Y319577D01*
X369577Y317796D01*
X371614Y316316D01*
X373858Y315172D01*
X376253Y314394D01*
X378741Y314000D01*
X381259D01*
X383747Y314394D01*
X386142Y315172D01*
X388386Y316316D01*
X390423Y317796D01*
X392204Y319577D01*
X393684Y321614D01*
X394828Y323858D01*
X395461Y325806D01*
X395961Y325727D01*
Y318557D01*
X395399Y317996D01*
X394971Y317254D01*
X394750Y316428D01*
Y315572D01*
X394971Y314746D01*
X395399Y314004D01*
X396005Y313399D01*
X396746Y312971D01*
X397572Y312750D01*
X398428D01*
X399254Y312971D01*
X399995Y313399D01*
X400601Y314004D01*
X401028Y314746D01*
X401250Y315572D01*
Y316428D01*
X401028Y317254D01*
X400601Y317996D01*
X400039Y318557D01*
Y340500D01*
X399884Y341280D01*
X399442Y341942D01*
X381442Y359942D01*
X380780Y360384D01*
X380394Y360461D01*
X380443Y360961D01*
X382655D01*
X407461Y336155D01*
Y303500D01*
X407616Y302720D01*
X408058Y302058D01*
X408750Y301366D01*
Y300572D01*
X408972Y299746D01*
X409399Y299005D01*
X410005Y298399D01*
X410746Y297972D01*
X411572Y297750D01*
X412428D01*
X413254Y297972D01*
X413996Y298399D01*
X414601Y299005D01*
X415028Y299746D01*
X415250Y300572D01*
Y301428D01*
X415028Y302254D01*
X414601Y302995D01*
X413996Y303601D01*
X413254Y304029D01*
X412428Y304250D01*
X411634D01*
X411539Y304345D01*
Y337000D01*
X411384Y337780D01*
X410942Y338442D01*
X384942Y364442D01*
X384855Y364500D01*
X385007Y365000D01*
X497500D01*
Y217500D01*
D02*
G37*
%LPC*%
G36*
X483137Y359209D02*
X481863D01*
X480632Y358879D01*
X479529Y358242D01*
X478628Y357341D01*
X477991Y356238D01*
X477661Y355007D01*
Y353733D01*
X477991Y352502D01*
X478628Y351399D01*
X479529Y350498D01*
X480632Y349861D01*
X481863Y349532D01*
X483137D01*
X484368Y349861D01*
X485471Y350498D01*
X486372Y351399D01*
X487009Y352502D01*
X487339Y353733D01*
Y355007D01*
X487009Y356238D01*
X486372Y357341D01*
X485471Y358242D01*
X484368Y358879D01*
X483137Y359209D01*
D02*
G37*
G36*
X354071Y346571D02*
X345929D01*
Y338429D01*
X354071D01*
Y346571D01*
D02*
G37*
G36*
X284071D02*
X275929D01*
Y338429D01*
X284071D01*
Y346571D01*
D02*
G37*
G36*
X325928Y345250D02*
X325072D01*
X324246Y345028D01*
X323504Y344601D01*
X322899Y343995D01*
X322471Y343254D01*
X322250Y342428D01*
Y341572D01*
X322471Y340746D01*
X322899Y340004D01*
X323461Y339443D01*
Y337845D01*
X319957Y334341D01*
X319569Y334660D01*
X319884Y335131D01*
X320039Y335912D01*
Y339443D01*
X320601Y340004D01*
X321028Y340746D01*
X321250Y341572D01*
Y342428D01*
X321028Y343254D01*
X320601Y343995D01*
X319995Y344601D01*
X319254Y345028D01*
X318428Y345250D01*
X317572D01*
X316746Y345028D01*
X316004Y344601D01*
X315399Y343995D01*
X314971Y343254D01*
X314750Y342428D01*
Y341572D01*
X314971Y340746D01*
X315399Y340004D01*
X315961Y339443D01*
Y336756D01*
X299058Y319854D01*
X298616Y319192D01*
X298461Y318412D01*
Y267845D01*
X292002Y261386D01*
X291754Y261528D01*
X290928Y261750D01*
X290072D01*
X289246Y261528D01*
X288505Y261101D01*
X287899Y260495D01*
X287472Y259754D01*
X287250Y258928D01*
Y258072D01*
X287472Y257246D01*
X287899Y256505D01*
X288505Y255899D01*
X289246Y255471D01*
X290072Y255250D01*
X290928D01*
X291244Y255335D01*
X291502Y254886D01*
X291155Y254539D01*
X283523D01*
X283258Y255000D01*
X282500Y255757D01*
X281571Y256293D01*
X280536Y256571D01*
X279464D01*
X278429Y256293D01*
X277500Y255757D01*
X276743Y255000D01*
X276207Y254071D01*
X275929Y253036D01*
Y251964D01*
X276207Y250929D01*
X276743Y250000D01*
X277500Y249242D01*
X278429Y248707D01*
X279464Y248429D01*
X280536D01*
X281571Y248707D01*
X282500Y249242D01*
X283258Y250000D01*
X283523Y250461D01*
X292000D01*
X292780Y250616D01*
X293442Y251058D01*
X296386Y254002D01*
X296835Y253744D01*
X296750Y253428D01*
Y252572D01*
X296972Y251746D01*
X297399Y251005D01*
X298005Y250399D01*
X298746Y249972D01*
X299572Y249750D01*
X300366D01*
X304961Y245155D01*
Y238500D01*
X305116Y237720D01*
X305558Y237058D01*
X330961Y211655D01*
Y178502D01*
X330461Y178368D01*
X329985Y179192D01*
X329054Y180123D01*
X327914Y180781D01*
X326642Y181122D01*
X325326D01*
X324054Y180781D01*
X322914Y180123D01*
X321983Y179192D01*
X321325Y178052D01*
X320984Y176780D01*
Y175464D01*
X321325Y174192D01*
X321983Y173052D01*
X322914Y172121D01*
X324054Y171463D01*
X325326Y171122D01*
X326642D01*
X327914Y171463D01*
X329054Y172121D01*
X329985Y173052D01*
X330461Y173876D01*
X330961Y173742D01*
Y131258D01*
X330461Y131124D01*
X329985Y131948D01*
X329054Y132879D01*
X327914Y133537D01*
X326642Y133878D01*
X325326D01*
X324054Y133537D01*
X322914Y132879D01*
X321983Y131948D01*
X321325Y130808D01*
X320984Y129536D01*
Y128220D01*
X321325Y126948D01*
X321983Y125808D01*
X322914Y124877D01*
X324054Y124219D01*
X325326Y123878D01*
X326642D01*
X327914Y124219D01*
X329054Y124877D01*
X329985Y125808D01*
X330461Y126632D01*
X330961Y126498D01*
Y116595D01*
X330558Y116192D01*
X330116Y115530D01*
X329961Y114750D01*
Y112057D01*
X329399Y111495D01*
X328972Y110754D01*
X328750Y109928D01*
Y109072D01*
X328972Y108246D01*
X329399Y107504D01*
X330005Y106899D01*
X330746Y106472D01*
X331572Y106250D01*
X332428D01*
X333254Y106472D01*
X333827Y106802D01*
X334323Y106592D01*
X334366Y106249D01*
X332319Y104203D01*
X331754Y104528D01*
X330928Y104750D01*
X330072D01*
X329246Y104528D01*
X328504Y104101D01*
X327899Y103496D01*
X327471Y102754D01*
X327250Y101928D01*
Y101072D01*
X327471Y100246D01*
X327899Y99505D01*
X328504Y98899D01*
X329246Y98471D01*
X330072Y98250D01*
X330928D01*
X331754Y98471D01*
X332495Y98899D01*
X333101Y99505D01*
X333400Y100023D01*
X333759Y100094D01*
X334420Y100536D01*
X337942Y104058D01*
X337942Y104058D01*
X338384Y104720D01*
X338539Y105500D01*
X338539Y105500D01*
Y110494D01*
X339039Y110628D01*
X339399Y110004D01*
X340004Y109399D01*
X340746Y108972D01*
X341572Y108750D01*
X342428D01*
X343254Y108972D01*
X343995Y109399D01*
X344601Y110004D01*
X345028Y110746D01*
X345250Y111572D01*
Y112428D01*
X345028Y113254D01*
X344601Y113996D01*
X343995Y114601D01*
X343254Y115029D01*
X342539Y115220D01*
Y117396D01*
X343039Y117445D01*
X343116Y117059D01*
X343558Y116397D01*
X346250Y113705D01*
Y113072D01*
X346472Y112246D01*
X346899Y111504D01*
X347504Y110899D01*
X348246Y110471D01*
X349072Y110250D01*
X349928D01*
X350754Y110471D01*
X351496Y110899D01*
X352101Y111504D01*
X352529Y112246D01*
X352750Y113072D01*
Y113928D01*
X352529Y114754D01*
X352101Y115496D01*
X351496Y116101D01*
X350754Y116528D01*
X349928Y116750D01*
X349072D01*
X348994Y116729D01*
X347039Y118684D01*
Y221000D01*
X346884Y221780D01*
X346442Y222442D01*
X342539Y226345D01*
Y252155D01*
X348951Y258567D01*
X349464Y258429D01*
X350536D01*
X351571Y258707D01*
X352500Y259243D01*
X353257Y260000D01*
X353793Y260929D01*
X354071Y261964D01*
Y263036D01*
X353793Y264071D01*
X353257Y265000D01*
X352500Y265757D01*
X351571Y266293D01*
X350536Y266571D01*
X349464D01*
X348429Y266293D01*
X347500Y265757D01*
X346743Y265000D01*
X346207Y264071D01*
X345929Y263036D01*
Y261964D01*
X346067Y261451D01*
X339058Y254442D01*
X338616Y253780D01*
X338461Y253000D01*
Y225500D01*
X338616Y224720D01*
X338217Y224417D01*
X334039Y228595D01*
Y244500D01*
X333884Y245280D01*
X333442Y245942D01*
X333442Y245942D01*
X314250Y265134D01*
Y265928D01*
X314029Y266754D01*
X313601Y267495D01*
X312996Y268101D01*
X312254Y268529D01*
X311428Y268750D01*
X310572D01*
X309746Y268529D01*
X309004Y268101D01*
X308399Y267495D01*
X307972Y266754D01*
X307750Y265928D01*
Y265072D01*
X307972Y264246D01*
X308399Y263505D01*
X309004Y262899D01*
X309746Y262472D01*
X310572Y262250D01*
X311366D01*
X329961Y243655D01*
Y227750D01*
X330116Y226970D01*
X330558Y226308D01*
X338323Y218543D01*
X338286Y218305D01*
X337753Y218131D01*
X313185Y242698D01*
Y252854D01*
X313030Y253634D01*
X312588Y254296D01*
X308750Y258134D01*
Y258928D01*
X308528Y259754D01*
X308101Y260495D01*
X307495Y261101D01*
X306754Y261528D01*
X305928Y261750D01*
X305072D01*
X304756Y261665D01*
X304498Y262114D01*
X305442Y263058D01*
X305884Y263720D01*
X306039Y264500D01*
Y314655D01*
X326942Y335558D01*
X327384Y336220D01*
X327539Y337000D01*
Y339443D01*
X328101Y340004D01*
X328528Y340746D01*
X328750Y341572D01*
Y342428D01*
X328528Y343254D01*
X328101Y343995D01*
X327496Y344601D01*
X326754Y345028D01*
X325928Y345250D01*
D02*
G37*
G36*
X483137Y339524D02*
X481863D01*
X480632Y339194D01*
X479529Y338557D01*
X478628Y337656D01*
X477991Y336553D01*
X477661Y335322D01*
Y334048D01*
X477991Y332817D01*
X478628Y331714D01*
X479529Y330813D01*
X480632Y330176D01*
X481863Y329847D01*
X483137D01*
X484368Y330176D01*
X485471Y330813D01*
X486372Y331714D01*
X487009Y332817D01*
X487339Y334048D01*
Y335322D01*
X487009Y336553D01*
X486372Y337656D01*
X485471Y338557D01*
X484368Y339194D01*
X483137Y339524D01*
D02*
G37*
G36*
X350536Y336571D02*
X349464D01*
X348429Y336293D01*
X347500Y335757D01*
X346743Y335000D01*
X346207Y334071D01*
X345929Y333036D01*
Y331964D01*
X346207Y330929D01*
X346743Y330000D01*
X347500Y329242D01*
X348429Y328707D01*
X349464Y328429D01*
X350536D01*
X351571Y328707D01*
X352500Y329242D01*
X353257Y330000D01*
X353793Y330929D01*
X354071Y331964D01*
Y333036D01*
X353793Y334071D01*
X353257Y335000D01*
X352500Y335757D01*
X351571Y336293D01*
X350536Y336571D01*
D02*
G37*
G36*
X238362Y333520D02*
X231638D01*
Y326795D01*
X238362D01*
Y333520D01*
D02*
G37*
G36*
X350536Y326571D02*
X349464D01*
X348429Y326293D01*
X347500Y325758D01*
X346743Y325000D01*
X346207Y324071D01*
X345929Y323036D01*
Y321964D01*
X346207Y320929D01*
X346743Y320000D01*
X347500Y319243D01*
X348429Y318707D01*
X349464Y318429D01*
X350536D01*
X351571Y318707D01*
X352500Y319243D01*
X353257Y320000D01*
X353793Y320929D01*
X354071Y321964D01*
Y323036D01*
X353793Y324071D01*
X353257Y325000D01*
X352500Y325758D01*
X351571Y326293D01*
X350536Y326571D01*
D02*
G37*
G36*
X280536D02*
X279464D01*
X278429Y326293D01*
X277500Y325758D01*
X276743Y325000D01*
X276207Y324071D01*
X275929Y323036D01*
Y321964D01*
X276207Y320929D01*
X276743Y320000D01*
X277500Y319243D01*
X278429Y318707D01*
X279464Y318429D01*
X280536D01*
X281571Y318707D01*
X282500Y319243D01*
X283258Y320000D01*
X283793Y320929D01*
X284071Y321964D01*
Y323036D01*
X283793Y324071D01*
X283258Y325000D01*
X282500Y325758D01*
X281571Y326293D01*
X280536Y326571D01*
D02*
G37*
G36*
X483137Y319839D02*
X481863D01*
X480632Y319509D01*
X479529Y318872D01*
X478628Y317971D01*
X477991Y316868D01*
X477661Y315637D01*
Y314363D01*
X477991Y313132D01*
X478628Y312029D01*
X479529Y311128D01*
X480632Y310491D01*
X481863Y310161D01*
X483137D01*
X484368Y310491D01*
X485471Y311128D01*
X486372Y312029D01*
X487009Y313132D01*
X487339Y314363D01*
Y315637D01*
X487009Y316868D01*
X486372Y317971D01*
X485471Y318872D01*
X484368Y319509D01*
X483137Y319839D01*
D02*
G37*
G36*
X280536Y316571D02*
X279464D01*
X278429Y316293D01*
X277500Y315757D01*
X276743Y315000D01*
X276207Y314071D01*
X275929Y313036D01*
Y311964D01*
X276207Y310929D01*
X276743Y310000D01*
X277500Y309243D01*
X278429Y308707D01*
X279464Y308429D01*
X280536D01*
X281571Y308707D01*
X282500Y309243D01*
X283258Y310000D01*
X283793Y310929D01*
X284071Y311964D01*
Y313036D01*
X283793Y314071D01*
X283258Y315000D01*
X282500Y315757D01*
X281571Y316293D01*
X280536Y316571D01*
D02*
G37*
G36*
X146866Y323500D02*
X145134D01*
X143424Y323229D01*
X141778Y322694D01*
X140235Y321908D01*
X138834Y320890D01*
X137610Y319666D01*
X136592Y318265D01*
X135806Y316722D01*
X135271Y315076D01*
X135000Y313366D01*
Y311634D01*
X135271Y309924D01*
X135806Y308278D01*
X136592Y306735D01*
X137610Y305334D01*
X138834Y304110D01*
X140235Y303092D01*
X141778Y302306D01*
X143424Y301771D01*
X145134Y301500D01*
X146866D01*
X148576Y301771D01*
X150223Y302306D01*
X151765Y303092D01*
X153166Y304110D01*
X154390Y305334D01*
X155408Y306735D01*
X156194Y308278D01*
X156729Y309924D01*
X157000Y311634D01*
Y313366D01*
X156729Y315076D01*
X156194Y316722D01*
X155408Y318265D01*
X154390Y319666D01*
X153166Y320890D01*
X151765Y321908D01*
X150223Y322694D01*
X148576Y323229D01*
X146866Y323500D01*
D02*
G37*
G36*
X120866D02*
X119134D01*
X117424Y323229D01*
X115778Y322694D01*
X114235Y321908D01*
X112834Y320890D01*
X111610Y319666D01*
X110592Y318265D01*
X109806Y316722D01*
X109271Y315076D01*
X109000Y313366D01*
Y311634D01*
X109271Y309924D01*
X109806Y308278D01*
X110592Y306735D01*
X111610Y305334D01*
X112834Y304110D01*
X114235Y303092D01*
X115778Y302306D01*
X117424Y301771D01*
X119134Y301500D01*
X120866D01*
X122576Y301771D01*
X124223Y302306D01*
X125765Y303092D01*
X127166Y304110D01*
X128390Y305334D01*
X129408Y306735D01*
X130194Y308278D01*
X130729Y309924D01*
X131000Y311634D01*
Y313366D01*
X130729Y315076D01*
X130194Y316722D01*
X129408Y318265D01*
X128390Y319666D01*
X127166Y320890D01*
X125765Y321908D01*
X124223Y322694D01*
X122576Y323229D01*
X120866Y323500D01*
D02*
G37*
G36*
X193362Y307205D02*
X186638D01*
Y300480D01*
X193362D01*
Y307205D01*
D02*
G37*
G36*
X350536Y306571D02*
X349464D01*
X348429Y306293D01*
X347500Y305757D01*
X346743Y305000D01*
X346207Y304071D01*
X345929Y303036D01*
Y301964D01*
X346207Y300929D01*
X346743Y300000D01*
X347500Y299242D01*
X348429Y298707D01*
X349464Y298429D01*
X350536D01*
X351571Y298707D01*
X352500Y299242D01*
X353257Y300000D01*
X353793Y300929D01*
X354071Y301964D01*
Y303036D01*
X353793Y304071D01*
X353257Y305000D01*
X352500Y305757D01*
X351571Y306293D01*
X350536Y306571D01*
D02*
G37*
G36*
X280536D02*
X279464D01*
X278429Y306293D01*
X277500Y305757D01*
X276743Y305000D01*
X276207Y304071D01*
X275929Y303036D01*
Y301964D01*
X276207Y300929D01*
X276743Y300000D01*
X277500Y299242D01*
X278429Y298707D01*
X279464Y298429D01*
X280536D01*
X281571Y298707D01*
X282500Y299242D01*
X283258Y300000D01*
X283793Y300929D01*
X284071Y301964D01*
Y303036D01*
X283793Y304071D01*
X283258Y305000D01*
X282500Y305757D01*
X281571Y306293D01*
X280536Y306571D01*
D02*
G37*
G36*
X487339Y300153D02*
X477661D01*
Y290476D01*
X487339D01*
Y300153D01*
D02*
G37*
G36*
X350536Y296571D02*
X349464D01*
X348429Y296293D01*
X347500Y295758D01*
X346743Y295000D01*
X346207Y294071D01*
X345929Y293036D01*
Y291964D01*
X346207Y290929D01*
X346743Y290000D01*
X347500Y289243D01*
X348429Y288707D01*
X349464Y288429D01*
X350536D01*
X351571Y288707D01*
X352500Y289243D01*
X353257Y290000D01*
X353793Y290929D01*
X354071Y291964D01*
Y293036D01*
X353793Y294071D01*
X353257Y295000D01*
X352500Y295758D01*
X351571Y296293D01*
X350536Y296571D01*
D02*
G37*
G36*
X280536D02*
X279464D01*
X278429Y296293D01*
X277500Y295758D01*
X276743Y295000D01*
X276207Y294071D01*
X275929Y293036D01*
Y291964D01*
X276207Y290929D01*
X276743Y290000D01*
X277500Y289243D01*
X278429Y288707D01*
X279464Y288429D01*
X280536D01*
X281571Y288707D01*
X282500Y289243D01*
X283258Y290000D01*
X283793Y290929D01*
X284071Y291964D01*
Y293036D01*
X283793Y294071D01*
X283258Y295000D01*
X282500Y295758D01*
X281571Y296293D01*
X280536Y296571D01*
D02*
G37*
G36*
X350536Y286571D02*
X349464D01*
X348429Y286293D01*
X347500Y285757D01*
X346743Y285000D01*
X346207Y284071D01*
X345929Y283036D01*
Y281964D01*
X346207Y280929D01*
X346743Y280000D01*
X347500Y279242D01*
X348429Y278707D01*
X349464Y278429D01*
X350536D01*
X351571Y278707D01*
X352500Y279242D01*
X353257Y280000D01*
X353793Y280929D01*
X354071Y281964D01*
Y283036D01*
X353793Y284071D01*
X353257Y285000D01*
X352500Y285757D01*
X351571Y286293D01*
X350536Y286571D01*
D02*
G37*
G36*
X280536D02*
X279464D01*
X278429Y286293D01*
X277500Y285757D01*
X276743Y285000D01*
X276207Y284071D01*
X275929Y283036D01*
Y281964D01*
X276207Y280929D01*
X276743Y280000D01*
X277500Y279242D01*
X278429Y278707D01*
X279464Y278429D01*
X280536D01*
X281571Y278707D01*
X282500Y279242D01*
X283258Y280000D01*
X283793Y280929D01*
X284071Y281964D01*
Y283036D01*
X283793Y284071D01*
X283258Y285000D01*
X282500Y285757D01*
X281571Y286293D01*
X280536Y286571D01*
D02*
G37*
G36*
X350536Y276571D02*
X349464D01*
X348429Y276293D01*
X347500Y275758D01*
X346743Y275000D01*
X346207Y274071D01*
X345929Y273036D01*
Y271964D01*
X346207Y270929D01*
X346743Y270000D01*
X347500Y269243D01*
X348429Y268707D01*
X349464Y268429D01*
X350536D01*
X351571Y268707D01*
X352500Y269243D01*
X353257Y270000D01*
X353793Y270929D01*
X354071Y271964D01*
Y273036D01*
X353793Y274071D01*
X353257Y275000D01*
X352500Y275758D01*
X351571Y276293D01*
X350536Y276571D01*
D02*
G37*
G36*
X280536D02*
X279464D01*
X278429Y276293D01*
X277500Y275758D01*
X276743Y275000D01*
X276207Y274071D01*
X275929Y273036D01*
Y271964D01*
X276207Y270929D01*
X276743Y270000D01*
X277500Y269243D01*
X278429Y268707D01*
X279464Y268429D01*
X280536D01*
X281571Y268707D01*
X282500Y269243D01*
X283258Y270000D01*
X283793Y270929D01*
X284071Y271964D01*
Y273036D01*
X283793Y274071D01*
X283258Y275000D01*
X282500Y275758D01*
X281571Y276293D01*
X280536Y276571D01*
D02*
G37*
G36*
Y266571D02*
X279464D01*
X278429Y266293D01*
X277500Y265757D01*
X276743Y265000D01*
X276207Y264071D01*
X275929Y263036D01*
Y261964D01*
X276207Y260929D01*
X276743Y260000D01*
X277500Y259243D01*
X278429Y258707D01*
X279464Y258429D01*
X280536D01*
X281571Y258707D01*
X282500Y259243D01*
X283258Y260000D01*
X283793Y260929D01*
X284071Y261964D01*
Y263036D01*
X283793Y264071D01*
X283258Y265000D01*
X282500Y265757D01*
X281571Y266293D01*
X280536Y266571D01*
D02*
G37*
G36*
X468158Y266890D02*
X466842D01*
X465570Y266549D01*
X464430Y265891D01*
X463499Y264960D01*
X462841Y263820D01*
X462500Y262548D01*
Y261231D01*
X462841Y259960D01*
X463499Y258820D01*
X464430Y257889D01*
X465570Y257230D01*
X466842Y256890D01*
X468158D01*
X469430Y257230D01*
X470570Y257889D01*
X471501Y258820D01*
X472159Y259960D01*
X472500Y261231D01*
Y262548D01*
X472159Y263820D01*
X471501Y264960D01*
X470570Y265891D01*
X469430Y266549D01*
X468158Y266890D01*
D02*
G37*
G36*
X399536Y265905D02*
X398220D01*
X396948Y265565D01*
X395808Y264907D01*
X394877Y263976D01*
X394219Y262835D01*
X393878Y261564D01*
Y260247D01*
X394219Y258976D01*
X394877Y257835D01*
X395808Y256905D01*
X396948Y256246D01*
X398220Y255906D01*
X399536D01*
X400808Y256246D01*
X401948Y256905D01*
X402879Y257835D01*
X403537Y258976D01*
X403878Y260247D01*
Y261564D01*
X403537Y262835D01*
X402879Y263976D01*
X401948Y264907D01*
X400808Y265565D01*
X399536Y265905D01*
D02*
G37*
G36*
X491780Y259016D02*
X490464D01*
X489192Y258675D01*
X488052Y258017D01*
X487121Y257086D01*
X486463Y255946D01*
X486122Y254674D01*
Y253358D01*
X486463Y252086D01*
X487121Y250946D01*
X488052Y250015D01*
X489192Y249357D01*
X490464Y249016D01*
X491780D01*
X493052Y249357D01*
X494192Y250015D01*
X495123Y250946D01*
X495781Y252086D01*
X496122Y253358D01*
Y254674D01*
X495781Y255946D01*
X495123Y257086D01*
X494192Y258017D01*
X493052Y258675D01*
X491780Y259016D01*
D02*
G37*
G36*
X444536D02*
X443220D01*
X441948Y258675D01*
X440808Y258017D01*
X439877Y257086D01*
X439219Y255946D01*
X438878Y254674D01*
Y253358D01*
X439219Y252086D01*
X439877Y250946D01*
X440808Y250015D01*
X441948Y249357D01*
X443220Y249016D01*
X444536D01*
X445808Y249357D01*
X446948Y250015D01*
X447879Y250946D01*
X448537Y252086D01*
X448878Y253358D01*
Y254674D01*
X448537Y255946D01*
X447879Y257086D01*
X446948Y258017D01*
X445808Y258675D01*
X444536Y259016D01*
D02*
G37*
G36*
X350536Y256571D02*
X349464D01*
X348429Y256293D01*
X347500Y255757D01*
X346743Y255000D01*
X346207Y254071D01*
X345929Y253036D01*
Y251964D01*
X346207Y250929D01*
X346743Y250000D01*
X347500Y249242D01*
X348429Y248707D01*
X349464Y248429D01*
X350536D01*
X351571Y248707D01*
X352500Y249242D01*
X353257Y250000D01*
X353793Y250929D01*
X354071Y251964D01*
Y253036D01*
X353793Y254071D01*
X353257Y255000D01*
X352500Y255757D01*
X351571Y256293D01*
X350536Y256571D01*
D02*
G37*
G36*
X423158Y258032D02*
X421842D01*
X420570Y257691D01*
X419430Y257032D01*
X418499Y256102D01*
X417841Y254961D01*
X417500Y253690D01*
Y252373D01*
X417841Y251102D01*
X418499Y249961D01*
X419430Y249030D01*
X420570Y248372D01*
X421842Y248031D01*
X423158D01*
X424430Y248372D01*
X425570Y249030D01*
X426501Y249961D01*
X427159Y251102D01*
X427500Y252373D01*
Y253690D01*
X427159Y254961D01*
X426501Y256102D01*
X425570Y257032D01*
X424430Y257691D01*
X423158Y258032D01*
D02*
G37*
G36*
X375914D02*
X374598D01*
X373326Y257691D01*
X372186Y257032D01*
X371255Y256102D01*
X370597Y254961D01*
X370256Y253690D01*
Y252373D01*
X370597Y251102D01*
X371255Y249961D01*
X372186Y249030D01*
X373326Y248372D01*
X374598Y248031D01*
X375914D01*
X377186Y248372D01*
X378326Y249030D01*
X379257Y249961D01*
X379915Y251102D01*
X380256Y252373D01*
Y253690D01*
X379915Y254961D01*
X379257Y256102D01*
X378326Y257032D01*
X377186Y257691D01*
X375914Y258032D01*
D02*
G37*
G36*
X68759Y273500D02*
X66241D01*
X63753Y273106D01*
X61358Y272328D01*
X59114Y271184D01*
X57077Y269704D01*
X55296Y267923D01*
X53816Y265886D01*
X52672Y263642D01*
X51894Y261247D01*
X51500Y258759D01*
Y256241D01*
X51894Y253753D01*
X52672Y251358D01*
X53816Y249114D01*
X55296Y247077D01*
X57077Y245296D01*
X59114Y243816D01*
X61358Y242672D01*
X63753Y241894D01*
X66241Y241500D01*
X68759D01*
X71247Y241894D01*
X73642Y242672D01*
X75886Y243816D01*
X77923Y245296D01*
X79704Y247077D01*
X81184Y249114D01*
X82328Y251358D01*
X83106Y253753D01*
X83500Y256241D01*
Y258759D01*
X83106Y261247D01*
X82328Y263642D01*
X81184Y265886D01*
X79704Y267923D01*
X77923Y269704D01*
X75886Y271184D01*
X73642Y272328D01*
X71247Y273106D01*
X68759Y273500D01*
D02*
G37*
G36*
X350536Y246571D02*
X349464D01*
X348429Y246293D01*
X347500Y245758D01*
X346743Y245000D01*
X346207Y244071D01*
X345929Y243036D01*
Y241964D01*
X346207Y240929D01*
X346743Y240000D01*
X347500Y239243D01*
X348429Y238707D01*
X349464Y238429D01*
X350536D01*
X351571Y238707D01*
X352500Y239243D01*
X353257Y240000D01*
X353793Y240929D01*
X354071Y241964D01*
Y243036D01*
X353793Y244071D01*
X353257Y245000D01*
X352500Y245758D01*
X351571Y246293D01*
X350536Y246571D01*
D02*
G37*
G36*
X280536D02*
X279464D01*
X278429Y246293D01*
X277500Y245758D01*
X276743Y245000D01*
X276207Y244071D01*
X275929Y243036D01*
Y241964D01*
X276207Y240929D01*
X276743Y240000D01*
X277500Y239243D01*
X278429Y238707D01*
X279464Y238429D01*
X280536D01*
X281571Y238707D01*
X282500Y239243D01*
X283258Y240000D01*
X283793Y240929D01*
X284071Y241964D01*
Y243036D01*
X283793Y244071D01*
X283258Y245000D01*
X282500Y245758D01*
X281571Y246293D01*
X280536Y246571D01*
D02*
G37*
G36*
Y236571D02*
X279464D01*
X278429Y236293D01*
X277500Y235757D01*
X276743Y235000D01*
X276207Y234071D01*
X275929Y233036D01*
Y231964D01*
X276207Y230929D01*
X276743Y230000D01*
X277500Y229242D01*
X278429Y228707D01*
X279464Y228429D01*
X280536D01*
X281571Y228707D01*
X282500Y229242D01*
X283258Y230000D01*
X283793Y230929D01*
X284071Y231964D01*
Y233036D01*
X283793Y234071D01*
X283258Y235000D01*
X282500Y235757D01*
X281571Y236293D01*
X280536Y236571D01*
D02*
G37*
G36*
X350536D02*
X349464D01*
X348429Y236293D01*
X347500Y235757D01*
X346743Y235000D01*
X346207Y234071D01*
X345929Y233036D01*
Y231964D01*
X346207Y230929D01*
X346743Y230000D01*
X347500Y229242D01*
X347961Y228977D01*
Y185000D01*
X348116Y184220D01*
X348558Y183558D01*
X352250Y179866D01*
Y179072D01*
X352471Y178246D01*
X352899Y177505D01*
X353504Y176899D01*
X354246Y176471D01*
X355072Y176250D01*
X355928D01*
X356754Y176471D01*
X357495Y176899D01*
X358101Y177505D01*
X358528Y178246D01*
X358750Y179072D01*
Y179928D01*
X358528Y180754D01*
X358101Y181495D01*
X357495Y182101D01*
X356754Y182528D01*
X355928Y182750D01*
X355134D01*
X354295Y183589D01*
X354487Y184051D01*
X358980D01*
Y183000D01*
X359058Y182610D01*
X359279Y182279D01*
X359610Y182058D01*
X360000Y181980D01*
X370000D01*
X370390Y182058D01*
X370721Y182279D01*
X370942Y182610D01*
X371020Y183000D01*
Y186000D01*
Y201458D01*
X371520Y201665D01*
X372186Y200999D01*
X373326Y200341D01*
X374598Y200000D01*
X375914D01*
X377186Y200341D01*
X378326Y200999D01*
X379257Y201930D01*
X379915Y203070D01*
X380256Y204342D01*
Y205658D01*
X379915Y206930D01*
X379257Y208070D01*
X378326Y209001D01*
X377186Y209659D01*
X375914Y210000D01*
X374598D01*
X373795Y209785D01*
X373536Y210233D01*
X376461Y213158D01*
X376610Y213058D01*
X377000Y212980D01*
X396000D01*
X396390Y213058D01*
X396721Y213279D01*
X396942Y213610D01*
X397020Y214000D01*
Y233000D01*
X396942Y233390D01*
X396721Y233721D01*
X396390Y233942D01*
X396000Y234020D01*
X385093D01*
X385047Y234057D01*
X383788Y234731D01*
X382421Y235145D01*
X381000Y235285D01*
X379579Y235145D01*
X378212Y234731D01*
X376953Y234057D01*
X376877Y233995D01*
X376610Y233942D01*
X376279Y233721D01*
X376058Y233390D01*
X376042Y233310D01*
X375849Y233151D01*
X355849Y213151D01*
X354943Y212047D01*
X354270Y210788D01*
X353855Y209421D01*
X353715Y208000D01*
Y204020D01*
X353000D01*
X352610Y203942D01*
X352539Y203895D01*
X352039Y204162D01*
Y228977D01*
X352500Y229242D01*
X353257Y230000D01*
X353793Y230929D01*
X354071Y231964D01*
Y233036D01*
X353793Y234071D01*
X353257Y235000D01*
X352500Y235757D01*
X351571Y236293D01*
X350536Y236571D01*
D02*
G37*
G36*
X423158Y210000D02*
X421842D01*
X420570Y209659D01*
X419430Y209001D01*
X418499Y208070D01*
X417841Y206930D01*
X417500Y205658D01*
Y204342D01*
X417841Y203070D01*
X418499Y201930D01*
X419430Y200999D01*
X420570Y200341D01*
X421842Y200000D01*
X423158D01*
X424430Y200341D01*
X425570Y200999D01*
X426501Y201930D01*
X427159Y203070D01*
X427500Y204342D01*
Y205658D01*
X427159Y206930D01*
X426501Y208070D01*
X425570Y209001D01*
X424430Y209659D01*
X423158Y210000D01*
D02*
G37*
G36*
X293428Y243250D02*
X292572D01*
X291746Y243028D01*
X291004Y242601D01*
X290399Y241996D01*
X289971Y241254D01*
X289750Y240428D01*
Y239572D01*
X289971Y238746D01*
X289974Y238741D01*
Y230253D01*
X285247Y225526D01*
X230000D01*
X229217Y225423D01*
X228487Y225120D01*
X227860Y224640D01*
X202251Y199030D01*
X202246Y199029D01*
X201504Y198601D01*
X200899Y197995D01*
X200471Y197254D01*
X200250Y196428D01*
Y195572D01*
X200471Y194746D01*
X200899Y194004D01*
X201504Y193399D01*
X202246Y192972D01*
X203072Y192750D01*
X203928D01*
X204754Y192972D01*
X205496Y193399D01*
X206101Y194004D01*
X206528Y194746D01*
X206530Y194751D01*
X231253Y219474D01*
X286500D01*
X287283Y219577D01*
X288013Y219880D01*
X288640Y220360D01*
X295140Y226860D01*
X295620Y227487D01*
X295923Y228217D01*
X296026Y229000D01*
X296026Y229000D01*
Y238741D01*
X296028Y238746D01*
X296250Y239572D01*
Y240428D01*
X296028Y241254D01*
X295601Y241996D01*
X294995Y242601D01*
X294254Y243028D01*
X293428Y243250D01*
D02*
G37*
G36*
X291924Y203200D02*
X290476D01*
X289077Y202825D01*
X287823Y202101D01*
X286799Y201077D01*
X286075Y199823D01*
X285700Y198424D01*
Y196976D01*
X286075Y195577D01*
X286799Y194323D01*
X287823Y193299D01*
X289077Y192575D01*
X290476Y192200D01*
X291924D01*
X293323Y192575D01*
X294577Y193299D01*
X295601Y194323D01*
X296325Y195577D01*
X296700Y196976D01*
Y198424D01*
X296325Y199823D01*
X295601Y201077D01*
X294577Y202101D01*
X293323Y202825D01*
X291924Y203200D01*
D02*
G37*
G36*
X253524D02*
X252076D01*
X250677Y202825D01*
X249423Y202101D01*
X248399Y201077D01*
X247675Y199823D01*
X247300Y198424D01*
Y196976D01*
X247675Y195577D01*
X248399Y194323D01*
X249423Y193299D01*
X250677Y192575D01*
X252076Y192200D01*
X253524D01*
X254923Y192575D01*
X256177Y193299D01*
X257201Y194323D01*
X257925Y195577D01*
X258300Y196976D01*
Y198424D01*
X257925Y199823D01*
X257201Y201077D01*
X256177Y202101D01*
X254923Y202825D01*
X253524Y203200D01*
D02*
G37*
G36*
X192277Y192500D02*
X191223D01*
X190206Y192227D01*
X189294Y191701D01*
X188549Y190956D01*
X188023Y190044D01*
X187750Y189027D01*
Y187973D01*
X188023Y186956D01*
X188549Y186044D01*
X189294Y185299D01*
X190206Y184773D01*
X191223Y184500D01*
X192277D01*
X193294Y184773D01*
X194206Y185299D01*
X194951Y186044D01*
X195477Y186956D01*
X195750Y187973D01*
Y189027D01*
X195477Y190044D01*
X194951Y190956D01*
X194206Y191701D01*
X193294Y192227D01*
X192277Y192500D01*
D02*
G37*
G36*
X291924Y189800D02*
X290476D01*
X289077Y189425D01*
X287823Y188701D01*
X286799Y187677D01*
X286075Y186423D01*
X285700Y185024D01*
Y183576D01*
X286075Y182177D01*
X286799Y180923D01*
X287823Y179899D01*
X289077Y179175D01*
X290476Y178800D01*
X291924D01*
X293323Y179175D01*
X294577Y179899D01*
X295601Y180923D01*
X296325Y182177D01*
X296700Y183576D01*
Y185024D01*
X296325Y186423D01*
X295601Y187677D01*
X294577Y188701D01*
X293323Y189425D01*
X291924Y189800D01*
D02*
G37*
G36*
X253524D02*
X252076D01*
X250677Y189425D01*
X249423Y188701D01*
X248399Y187677D01*
X247675Y186423D01*
X247300Y185024D01*
Y183576D01*
X247675Y182177D01*
X248399Y180923D01*
X249423Y179899D01*
X250677Y179175D01*
X252076Y178800D01*
X253524D01*
X254923Y179175D01*
X256177Y179899D01*
X257201Y180923D01*
X257925Y182177D01*
X258300Y183576D01*
Y185024D01*
X257925Y186423D01*
X257201Y187677D01*
X256177Y188701D01*
X254923Y189425D01*
X253524Y189800D01*
D02*
G37*
G36*
X192277Y182500D02*
X191223D01*
X190206Y182227D01*
X189294Y181701D01*
X188549Y180956D01*
X188023Y180044D01*
X187750Y179027D01*
Y177973D01*
X188023Y176956D01*
X188549Y176044D01*
X189294Y175299D01*
X190206Y174773D01*
X191223Y174500D01*
X192277D01*
X193294Y174773D01*
X194206Y175299D01*
X194951Y176044D01*
X195477Y176956D01*
X195750Y177973D01*
Y179027D01*
X195477Y180044D01*
X194951Y180956D01*
X194206Y181701D01*
X193294Y182227D01*
X192277Y182500D01*
D02*
G37*
G36*
X120116Y194500D02*
X118384D01*
X116674Y194229D01*
X115027Y193694D01*
X113485Y192908D01*
X112084Y191890D01*
X110860Y190666D01*
X109842Y189265D01*
X109056Y187723D01*
X108521Y186076D01*
X108250Y184366D01*
Y182634D01*
X108521Y180924D01*
X109056Y179278D01*
X109842Y177735D01*
X110860Y176334D01*
X112084Y175110D01*
X113485Y174092D01*
X115027Y173306D01*
X116674Y172771D01*
X118384Y172500D01*
X120116D01*
X121826Y172771D01*
X123472Y173306D01*
X125015Y174092D01*
X126416Y175110D01*
X127640Y176334D01*
X128658Y177735D01*
X129444Y179278D01*
X129979Y180924D01*
X130250Y182634D01*
Y184366D01*
X129979Y186076D01*
X129444Y187723D01*
X128658Y189265D01*
X127640Y190666D01*
X126416Y191890D01*
X125015Y192908D01*
X123472Y193694D01*
X121826Y194229D01*
X120116Y194500D01*
D02*
G37*
G36*
X374674Y181122D02*
X373358D01*
X372086Y180781D01*
X370946Y180123D01*
X370015Y179192D01*
X369356Y178052D01*
X369016Y176780D01*
Y175464D01*
X369356Y174192D01*
X370015Y173052D01*
X370946Y172121D01*
X372086Y171463D01*
X373358Y171122D01*
X374674D01*
X375946Y171463D01*
X377086Y172121D01*
X378017Y173052D01*
X378675Y174192D01*
X379016Y175464D01*
Y176780D01*
X378675Y178052D01*
X378017Y179192D01*
X377086Y180123D01*
X375946Y180781D01*
X374674Y181122D01*
D02*
G37*
G36*
X291924Y175200D02*
X290476D01*
X289077Y174825D01*
X287823Y174101D01*
X286799Y173077D01*
X286075Y171823D01*
X285700Y170424D01*
Y168976D01*
X286075Y167577D01*
X286799Y166323D01*
X287823Y165299D01*
X289077Y164575D01*
X290476Y164200D01*
X291924D01*
X293323Y164575D01*
X294577Y165299D01*
X295601Y166323D01*
X296325Y167577D01*
X296700Y168976D01*
Y170424D01*
X296325Y171823D01*
X295601Y173077D01*
X294577Y174101D01*
X293323Y174825D01*
X291924Y175200D01*
D02*
G37*
G36*
X253524D02*
X252076D01*
X250677Y174825D01*
X249423Y174101D01*
X248399Y173077D01*
X247675Y171823D01*
X247300Y170424D01*
Y168976D01*
X247675Y167577D01*
X248399Y166323D01*
X249423Y165299D01*
X250677Y164575D01*
X252076Y164200D01*
X253524D01*
X254923Y164575D01*
X256177Y165299D01*
X257201Y166323D01*
X257925Y167577D01*
X258300Y168976D01*
Y170424D01*
X257925Y171823D01*
X257201Y173077D01*
X256177Y174101D01*
X254923Y174825D01*
X253524Y175200D01*
D02*
G37*
G36*
X457500Y213520D02*
X437500D01*
X437110Y213442D01*
X436779Y213221D01*
X436558Y212890D01*
X436480Y212500D01*
Y173567D01*
X436350Y172911D01*
Y171089D01*
X436480Y170433D01*
Y165000D01*
X436558Y164610D01*
X436779Y164279D01*
X437110Y164058D01*
X437500Y163980D01*
X440953D01*
X441219Y163803D01*
X442902Y163105D01*
X444689Y162750D01*
X446511D01*
X448298Y163105D01*
X449981Y163803D01*
X450247Y163980D01*
X457500D01*
X457890Y164058D01*
X458221Y164279D01*
X458442Y164610D01*
X458520Y165000D01*
Y212500D01*
X458442Y212890D01*
X458221Y213221D01*
X457890Y213442D01*
X457500Y213520D01*
D02*
G37*
G36*
X297183Y216495D02*
X296327D01*
X295501Y216273D01*
X294760Y215845D01*
X294198Y215284D01*
X236495D01*
X235714Y215129D01*
X235053Y214687D01*
X192742Y172375D01*
X192277Y172500D01*
X191223D01*
X190206Y172227D01*
X189294Y171701D01*
X188549Y170956D01*
X188023Y170044D01*
X187750Y169027D01*
Y167973D01*
X188023Y166956D01*
X188549Y166044D01*
X189294Y165299D01*
X190206Y164773D01*
X191223Y164500D01*
X192277D01*
X193294Y164773D01*
X194206Y165299D01*
X194951Y166044D01*
X195477Y166956D01*
X195750Y167973D01*
Y169027D01*
X195625Y169492D01*
X237339Y211206D01*
X294198D01*
X294760Y210644D01*
X295501Y210216D01*
X296162Y210039D01*
X296096Y209539D01*
X240750D01*
X239970Y209384D01*
X239308Y208942D01*
X239308Y208942D01*
X192742Y162375D01*
X192277Y162500D01*
X191223D01*
X190206Y162227D01*
X189294Y161701D01*
X188549Y160956D01*
X188023Y160044D01*
X187750Y159027D01*
Y157973D01*
X188023Y156956D01*
X188549Y156044D01*
X189294Y155299D01*
X190206Y154773D01*
X191223Y154500D01*
X192277D01*
X193294Y154773D01*
X194206Y155299D01*
X194951Y156044D01*
X195477Y156956D01*
X195750Y157973D01*
Y159027D01*
X195625Y159492D01*
X241595Y205461D01*
X298500D01*
X299280Y205616D01*
X299942Y206058D01*
X301356Y207472D01*
X301798Y208134D01*
X301824Y208264D01*
X303310Y209750D01*
X303428D01*
X304254Y209971D01*
X304995Y210399D01*
X305601Y211004D01*
X306029Y211746D01*
X306250Y212572D01*
Y213428D01*
X306029Y214254D01*
X305601Y214996D01*
X304995Y215601D01*
X304254Y216028D01*
X303428Y216250D01*
X302572D01*
X301746Y216028D01*
X301005Y215601D01*
X300399Y214996D01*
X300224Y214692D01*
X299660Y214714D01*
X299356Y215240D01*
X298751Y215845D01*
X298010Y216273D01*
X297183Y216495D01*
D02*
G37*
G36*
X291924Y161800D02*
X290476D01*
X289077Y161425D01*
X287823Y160701D01*
X286799Y159677D01*
X286075Y158423D01*
X285700Y157024D01*
Y155576D01*
X286075Y154177D01*
X286799Y152923D01*
X287823Y151899D01*
X289077Y151175D01*
X290476Y150800D01*
X291924D01*
X293323Y151175D01*
X294577Y151899D01*
X295601Y152923D01*
X296325Y154177D01*
X296700Y155576D01*
Y157024D01*
X296325Y158423D01*
X295601Y159677D01*
X294577Y160701D01*
X293323Y161425D01*
X291924Y161800D01*
D02*
G37*
G36*
X253524D02*
X252076D01*
X250677Y161425D01*
X249423Y160701D01*
X248399Y159677D01*
X247675Y158423D01*
X247300Y157024D01*
Y155576D01*
X247675Y154177D01*
X248399Y152923D01*
X249423Y151899D01*
X250677Y151175D01*
X252076Y150800D01*
X253524D01*
X254923Y151175D01*
X256177Y151899D01*
X257201Y152923D01*
X257925Y154177D01*
X258300Y155576D01*
Y157024D01*
X257925Y158423D01*
X257201Y159677D01*
X256177Y160701D01*
X254923Y161425D01*
X253524Y161800D01*
D02*
G37*
G36*
X318769Y157500D02*
X317452D01*
X316180Y157159D01*
X315040Y156501D01*
X314109Y155570D01*
X313451Y154430D01*
X313110Y153158D01*
Y151842D01*
X313451Y150570D01*
X314109Y149430D01*
X315040Y148499D01*
X316180Y147841D01*
X317452Y147500D01*
X318769D01*
X320040Y147841D01*
X321180Y148499D01*
X322111Y149430D01*
X322769Y150570D01*
X323110Y151842D01*
Y153158D01*
X322769Y154430D01*
X322111Y155570D01*
X321180Y156501D01*
X320040Y157159D01*
X318769Y157500D01*
D02*
G37*
G36*
X120116Y159500D02*
X118384D01*
X116674Y159229D01*
X115027Y158694D01*
X113485Y157908D01*
X112084Y156890D01*
X110860Y155666D01*
X109842Y154265D01*
X109056Y152723D01*
X108521Y151076D01*
X108250Y149366D01*
Y147634D01*
X108521Y145924D01*
X109056Y144278D01*
X109842Y142735D01*
X110860Y141334D01*
X112084Y140110D01*
X113485Y139092D01*
X115027Y138306D01*
X116674Y137771D01*
X118384Y137500D01*
X120116D01*
X121826Y137771D01*
X123472Y138306D01*
X125015Y139092D01*
X126416Y140110D01*
X127640Y141334D01*
X128658Y142735D01*
X129444Y144278D01*
X129979Y145924D01*
X130250Y147634D01*
Y149366D01*
X129979Y151076D01*
X129444Y152723D01*
X128658Y154265D01*
X127640Y155666D01*
X126416Y156890D01*
X125015Y157908D01*
X123472Y158694D01*
X121826Y159229D01*
X120116Y159500D01*
D02*
G37*
G36*
X291924Y147200D02*
X290476D01*
X289077Y146825D01*
X287823Y146101D01*
X286799Y145077D01*
X286075Y143823D01*
X285700Y142424D01*
Y140976D01*
X286075Y139577D01*
X286799Y138323D01*
X287823Y137299D01*
X289077Y136575D01*
X290476Y136200D01*
X291924D01*
X293323Y136575D01*
X294577Y137299D01*
X295601Y138323D01*
X296325Y139577D01*
X296700Y140976D01*
Y142424D01*
X296325Y143823D01*
X295601Y145077D01*
X294577Y146101D01*
X293323Y146825D01*
X291924Y147200D01*
D02*
G37*
G36*
X253524D02*
X252076D01*
X250677Y146825D01*
X249423Y146101D01*
X248399Y145077D01*
X247675Y143823D01*
X247300Y142424D01*
Y140976D01*
X247675Y139577D01*
X248399Y138323D01*
X249423Y137299D01*
X250677Y136575D01*
X252076Y136200D01*
X253524D01*
X254923Y136575D01*
X256177Y137299D01*
X257201Y138323D01*
X257925Y139577D01*
X258300Y140976D01*
Y142424D01*
X257925Y143823D01*
X257201Y145077D01*
X256177Y146101D01*
X254923Y146825D01*
X253524Y147200D01*
D02*
G37*
G36*
X192277Y142500D02*
X191223D01*
X190206Y142227D01*
X189294Y141701D01*
X188549Y140956D01*
X188023Y140044D01*
X187750Y139027D01*
Y137973D01*
X188023Y136956D01*
X188549Y136044D01*
X189294Y135299D01*
X190206Y134773D01*
X191223Y134500D01*
X192277D01*
X193294Y134773D01*
X194206Y135299D01*
X194951Y136044D01*
X195477Y136956D01*
X195750Y137973D01*
Y139027D01*
X195477Y140044D01*
X194951Y140956D01*
X194206Y141701D01*
X193294Y142227D01*
X192277Y142500D01*
D02*
G37*
G36*
X481511Y152750D02*
X479689D01*
X477902Y152394D01*
X476219Y151697D01*
X474704Y150685D01*
X473415Y149397D01*
X472403Y147881D01*
X471705Y146198D01*
X471350Y144411D01*
Y142589D01*
X471705Y140802D01*
X472403Y139119D01*
X473415Y137603D01*
X474704Y136315D01*
X476219Y135303D01*
X477902Y134606D01*
X479689Y134250D01*
X481511D01*
X483298Y134606D01*
X484981Y135303D01*
X486496Y136315D01*
X487785Y137603D01*
X488797Y139119D01*
X489495Y140802D01*
X489850Y142589D01*
Y144411D01*
X489495Y146198D01*
X488797Y147881D01*
X487785Y149397D01*
X486496Y150685D01*
X484981Y151697D01*
X483298Y152394D01*
X481511Y152750D01*
D02*
G37*
G36*
X446511D02*
X444689D01*
X442902Y152394D01*
X441219Y151697D01*
X439704Y150685D01*
X438415Y149397D01*
X437403Y147881D01*
X436705Y146198D01*
X436350Y144411D01*
Y142589D01*
X436705Y140802D01*
X437403Y139119D01*
X438415Y137603D01*
X439704Y136315D01*
X441219Y135303D01*
X442902Y134606D01*
X444689Y134250D01*
X446511D01*
X448298Y134606D01*
X449981Y135303D01*
X451497Y136315D01*
X452785Y137603D01*
X453797Y139119D01*
X454494Y140802D01*
X454850Y142589D01*
Y144411D01*
X454494Y146198D01*
X453797Y147881D01*
X452785Y149397D01*
X451497Y150685D01*
X449981Y151697D01*
X448298Y152394D01*
X446511Y152750D01*
D02*
G37*
G36*
X374674Y133878D02*
X373358D01*
X372086Y133537D01*
X370946Y132879D01*
X370015Y131948D01*
X369356Y130808D01*
X369016Y129536D01*
Y128220D01*
X369356Y126948D01*
X370015Y125808D01*
X370946Y124877D01*
X372086Y124219D01*
X373358Y123878D01*
X374674D01*
X375946Y124219D01*
X377086Y124877D01*
X378017Y125808D01*
X378675Y126948D01*
X379016Y128220D01*
Y129536D01*
X378675Y130808D01*
X378017Y131948D01*
X377086Y132879D01*
X375946Y133537D01*
X374674Y133878D01*
D02*
G37*
G36*
X253524Y133800D02*
X252076D01*
X250677Y133425D01*
X249423Y132701D01*
X248399Y131677D01*
X247675Y130423D01*
X247300Y129024D01*
Y127576D01*
X247675Y126177D01*
X248399Y124923D01*
X249423Y123899D01*
X250677Y123175D01*
X252076Y122800D01*
X253524D01*
X254923Y123175D01*
X256177Y123899D01*
X257201Y124923D01*
X257925Y126177D01*
X258300Y127576D01*
Y129024D01*
X257925Y130423D01*
X257201Y131677D01*
X256177Y132701D01*
X254923Y133425D01*
X253524Y133800D01*
D02*
G37*
G36*
X291924D02*
X290476D01*
X289077Y133425D01*
X287823Y132701D01*
X286799Y131677D01*
X286075Y130423D01*
X285700Y129024D01*
Y127576D01*
X286075Y126177D01*
X286799Y124923D01*
X287823Y123899D01*
X289077Y123175D01*
X289621Y123029D01*
X289751Y122546D01*
X289405Y122201D01*
X287395D01*
X286996Y122601D01*
X286254Y123029D01*
X285428Y123250D01*
X284572D01*
X283746Y123029D01*
X283004Y122601D01*
X282399Y121995D01*
X281972Y121254D01*
X281750Y120428D01*
Y119572D01*
X281972Y118746D01*
X282399Y118005D01*
X283004Y117399D01*
X283746Y116972D01*
X284572Y116750D01*
X285428D01*
X286254Y116972D01*
X286996Y117399D01*
X287601Y118005D01*
X287669Y118123D01*
X290250D01*
X291030Y118278D01*
X291692Y118720D01*
X292433Y119461D01*
X295155D01*
X295461Y119155D01*
Y107557D01*
X294899Y106995D01*
X294472Y106254D01*
X294250Y105428D01*
Y104572D01*
X294472Y103746D01*
X294899Y103005D01*
X295504Y102399D01*
X296246Y101971D01*
X297072Y101750D01*
X297928D01*
X298754Y101971D01*
X299496Y102399D01*
X300101Y103005D01*
X300529Y103746D01*
X300750Y104572D01*
Y105428D01*
X300529Y106254D01*
X300101Y106995D01*
X299539Y107557D01*
Y120000D01*
X299384Y120780D01*
X298942Y121442D01*
X297442Y122942D01*
X296780Y123384D01*
X296000Y123539D01*
X294916D01*
X294717Y124039D01*
X295601Y124923D01*
X296325Y126177D01*
X296700Y127576D01*
Y129024D01*
X296325Y130423D01*
X295601Y131677D01*
X294577Y132701D01*
X293323Y133425D01*
X291924Y133800D01*
D02*
G37*
G36*
X481511Y121750D02*
X479689D01*
X477902Y121395D01*
X476219Y120697D01*
X474704Y119685D01*
X473415Y118396D01*
X472403Y116882D01*
X471705Y115198D01*
X471350Y113411D01*
Y111589D01*
X471705Y109802D01*
X472403Y108118D01*
X473415Y106604D01*
X474704Y105315D01*
X476219Y104303D01*
X477902Y103605D01*
X479689Y103250D01*
X481511D01*
X483298Y103605D01*
X484981Y104303D01*
X486496Y105315D01*
X487785Y106604D01*
X488797Y108118D01*
X489495Y109802D01*
X489850Y111589D01*
Y113411D01*
X489495Y115198D01*
X488797Y116882D01*
X487785Y118396D01*
X486496Y119685D01*
X484981Y120697D01*
X483298Y121395D01*
X481511Y121750D01*
D02*
G37*
G36*
X446511D02*
X444689D01*
X442902Y121395D01*
X441219Y120697D01*
X439704Y119685D01*
X438415Y118396D01*
X437403Y116882D01*
X436705Y115198D01*
X436350Y113411D01*
Y111589D01*
X436705Y109802D01*
X437403Y108118D01*
X438415Y106604D01*
X439704Y105315D01*
X441219Y104303D01*
X442902Y103605D01*
X444689Y103250D01*
X446511D01*
X448298Y103605D01*
X449981Y104303D01*
X451497Y105315D01*
X452785Y106604D01*
X453797Y108118D01*
X454494Y109802D01*
X454850Y111589D01*
Y113411D01*
X454494Y115198D01*
X453797Y116882D01*
X452785Y118396D01*
X451497Y119685D01*
X449981Y120697D01*
X448298Y121395D01*
X446511Y121750D01*
D02*
G37*
G36*
X168759Y131000D02*
X166241D01*
X163753Y130606D01*
X161358Y129828D01*
X159114Y128684D01*
X157077Y127204D01*
X155296Y125423D01*
X153816Y123386D01*
X152672Y121142D01*
X151894Y118747D01*
X151500Y116259D01*
Y113741D01*
X151894Y111253D01*
X152672Y108858D01*
X153816Y106614D01*
X155296Y104577D01*
X157077Y102796D01*
X159114Y101316D01*
X161358Y100172D01*
X163753Y99394D01*
X166241Y99000D01*
X168759D01*
X171247Y99394D01*
X173642Y100172D01*
X175886Y101316D01*
X177923Y102796D01*
X179704Y104577D01*
X181184Y106614D01*
X182328Y108858D01*
X183106Y111253D01*
X183500Y113741D01*
Y116259D01*
X183106Y118747D01*
X182328Y121142D01*
X181184Y123386D01*
X179704Y125423D01*
X177923Y127204D01*
X175886Y128684D01*
X173642Y129828D01*
X171247Y130606D01*
X168759Y131000D01*
D02*
G37*
G36*
X140424Y99700D02*
X138976D01*
X137577Y99325D01*
X136323Y98601D01*
X135299Y97577D01*
X134575Y96323D01*
X134200Y94924D01*
Y93476D01*
X134575Y92077D01*
X135299Y90823D01*
X136323Y89799D01*
X137577Y89075D01*
X138976Y88700D01*
X140424D01*
X141823Y89075D01*
X143077Y89799D01*
X144101Y90823D01*
X144825Y92077D01*
X145200Y93476D01*
Y94924D01*
X144825Y96323D01*
X144101Y97577D01*
X143077Y98601D01*
X141823Y99325D01*
X140424Y99700D01*
D02*
G37*
G36*
X127024D02*
X125576D01*
X124177Y99325D01*
X122923Y98601D01*
X121899Y97577D01*
X121175Y96323D01*
X120800Y94924D01*
Y93476D01*
X121175Y92077D01*
X121899Y90823D01*
X122923Y89799D01*
X124177Y89075D01*
X125576Y88700D01*
X127024D01*
X128423Y89075D01*
X129677Y89799D01*
X130701Y90823D01*
X131425Y92077D01*
X131800Y93476D01*
Y94924D01*
X131425Y96323D01*
X130701Y97577D01*
X129677Y98601D01*
X128423Y99325D01*
X127024Y99700D01*
D02*
G37*
G36*
X101424D02*
X99976D01*
X98577Y99325D01*
X97323Y98601D01*
X96299Y97577D01*
X95575Y96323D01*
X95200Y94924D01*
Y93476D01*
X95575Y92077D01*
X96299Y90823D01*
X97323Y89799D01*
X98577Y89075D01*
X99976Y88700D01*
X101424D01*
X102823Y89075D01*
X104077Y89799D01*
X105101Y90823D01*
X105825Y92077D01*
X106200Y93476D01*
Y94924D01*
X105825Y96323D01*
X105101Y97577D01*
X104077Y98601D01*
X102823Y99325D01*
X101424Y99700D01*
D02*
G37*
G36*
X88024D02*
X86576D01*
X85177Y99325D01*
X83923Y98601D01*
X82899Y97577D01*
X82175Y96323D01*
X81800Y94924D01*
Y93476D01*
X82175Y92077D01*
X82899Y90823D01*
X83923Y89799D01*
X85177Y89075D01*
X86576Y88700D01*
X88024D01*
X89423Y89075D01*
X90677Y89799D01*
X91701Y90823D01*
X92425Y92077D01*
X92800Y93476D01*
Y94924D01*
X92425Y96323D01*
X91701Y97577D01*
X90677Y98601D01*
X89423Y99325D01*
X88024Y99700D01*
D02*
G37*
G36*
X58024D02*
X56576D01*
X55177Y99325D01*
X53923Y98601D01*
X52899Y97577D01*
X52175Y96323D01*
X51800Y94924D01*
Y93476D01*
X52175Y92077D01*
X52899Y90823D01*
X53923Y89799D01*
X55177Y89075D01*
X56576Y88700D01*
X58024D01*
X59423Y89075D01*
X60677Y89799D01*
X61701Y90823D01*
X62425Y92077D01*
X62800Y93476D01*
Y94924D01*
X62425Y96323D01*
X61701Y97577D01*
X60677Y98601D01*
X59423Y99325D01*
X58024Y99700D01*
D02*
G37*
G36*
X44624D02*
X43176D01*
X41777Y99325D01*
X40523Y98601D01*
X39499Y97577D01*
X38775Y96323D01*
X38400Y94924D01*
Y93476D01*
X38775Y92077D01*
X39499Y90823D01*
X40523Y89799D01*
X41777Y89075D01*
X43176Y88700D01*
X44624D01*
X46023Y89075D01*
X47277Y89799D01*
X48301Y90823D01*
X49025Y92077D01*
X49400Y93476D01*
Y94924D01*
X49025Y96323D01*
X48301Y97577D01*
X47277Y98601D01*
X46023Y99325D01*
X44624Y99700D01*
D02*
G37*
G36*
X140424Y61300D02*
X138976D01*
X137577Y60925D01*
X136323Y60201D01*
X135299Y59177D01*
X134575Y57923D01*
X134200Y56524D01*
Y55076D01*
X134575Y53677D01*
X135299Y52423D01*
X136323Y51399D01*
X137577Y50675D01*
X138976Y50300D01*
X140424D01*
X141823Y50675D01*
X143077Y51399D01*
X144101Y52423D01*
X144825Y53677D01*
X145200Y55076D01*
Y56524D01*
X144825Y57923D01*
X144101Y59177D01*
X143077Y60201D01*
X141823Y60925D01*
X140424Y61300D01*
D02*
G37*
G36*
X127024D02*
X125576D01*
X124177Y60925D01*
X122923Y60201D01*
X121899Y59177D01*
X121175Y57923D01*
X120800Y56524D01*
Y55076D01*
X121175Y53677D01*
X121899Y52423D01*
X122923Y51399D01*
X124177Y50675D01*
X125576Y50300D01*
X127024D01*
X128423Y50675D01*
X129677Y51399D01*
X130701Y52423D01*
X131425Y53677D01*
X131800Y55076D01*
Y56524D01*
X131425Y57923D01*
X130701Y59177D01*
X129677Y60201D01*
X128423Y60925D01*
X127024Y61300D01*
D02*
G37*
G36*
X101424D02*
X99976D01*
X98577Y60925D01*
X97323Y60201D01*
X96299Y59177D01*
X95575Y57923D01*
X95200Y56524D01*
Y55076D01*
X95575Y53677D01*
X96299Y52423D01*
X97323Y51399D01*
X98577Y50675D01*
X99976Y50300D01*
X101424D01*
X102823Y50675D01*
X104077Y51399D01*
X105101Y52423D01*
X105825Y53677D01*
X106200Y55076D01*
Y56524D01*
X105825Y57923D01*
X105101Y59177D01*
X104077Y60201D01*
X102823Y60925D01*
X101424Y61300D01*
D02*
G37*
G36*
X88024D02*
X86576D01*
X85177Y60925D01*
X83923Y60201D01*
X82899Y59177D01*
X82175Y57923D01*
X81800Y56524D01*
Y55076D01*
X82175Y53677D01*
X82899Y52423D01*
X83923Y51399D01*
X85177Y50675D01*
X86576Y50300D01*
X88024D01*
X89423Y50675D01*
X90677Y51399D01*
X91701Y52423D01*
X92425Y53677D01*
X92800Y55076D01*
Y56524D01*
X92425Y57923D01*
X91701Y59177D01*
X90677Y60201D01*
X89423Y60925D01*
X88024Y61300D01*
D02*
G37*
G36*
X58024D02*
X56576D01*
X55177Y60925D01*
X53923Y60201D01*
X52899Y59177D01*
X52175Y57923D01*
X51800Y56524D01*
Y55076D01*
X52175Y53677D01*
X52899Y52423D01*
X53923Y51399D01*
X55177Y50675D01*
X56576Y50300D01*
X58024D01*
X59423Y50675D01*
X60677Y51399D01*
X61701Y52423D01*
X62425Y53677D01*
X62800Y55076D01*
Y56524D01*
X62425Y57923D01*
X61701Y59177D01*
X60677Y60201D01*
X59423Y60925D01*
X58024Y61300D01*
D02*
G37*
G36*
X44624D02*
X43176D01*
X41777Y60925D01*
X40523Y60201D01*
X39499Y59177D01*
X38775Y57923D01*
X38400Y56524D01*
Y55076D01*
X38775Y53677D01*
X39499Y52423D01*
X40523Y51399D01*
X41777Y50675D01*
X43176Y50300D01*
X44624D01*
X46023Y50675D01*
X47277Y51399D01*
X48301Y52423D01*
X49025Y53677D01*
X49400Y55076D01*
Y56524D01*
X49025Y57923D01*
X48301Y59177D01*
X47277Y60201D01*
X46023Y60925D01*
X44624Y61300D01*
D02*
G37*
%LPD*%
G36*
X302335Y259244D02*
X302250Y258928D01*
Y258072D01*
X302471Y257246D01*
X302899Y256505D01*
X303504Y255899D01*
X304246Y255471D01*
X305072Y255250D01*
X305866D01*
X309107Y252009D01*
Y247346D01*
X308607Y247195D01*
X308442Y247442D01*
X308442Y247442D01*
X303250Y252634D01*
Y253428D01*
X303028Y254254D01*
X302601Y254995D01*
X301995Y255601D01*
X301254Y256029D01*
X300428Y256250D01*
X299572D01*
X299256Y256165D01*
X298997Y256614D01*
X301886Y259503D01*
X302335Y259244D01*
D02*
G37*
G36*
X309704Y240412D02*
X334461Y215655D01*
Y214630D01*
X333961Y214423D01*
X309039Y239345D01*
Y240507D01*
X309539Y240659D01*
X309704Y240412D01*
D02*
G37*
D15*
X350000Y185000D02*
Y232500D01*
Y185000D02*
X355500Y179500D01*
X345000Y117839D02*
Y221000D01*
X349339Y113500D02*
X349500D01*
X340500Y225500D02*
X345000Y221000D01*
X332000Y227750D02*
X340500Y219250D01*
Y113500D02*
X342000Y112000D01*
X345000Y117839D02*
X349339Y113500D01*
X340500D02*
Y219250D01*
X299914Y208914D02*
Y209238D01*
X298500Y207500D02*
X299914Y208914D01*
X303000Y212323D02*
Y213000D01*
X299914Y209238D02*
X303000Y212323D01*
X191750Y168500D02*
X236495Y213245D01*
X296755D01*
X285162Y120162D02*
X290250D01*
X291588Y121500D02*
X296000D01*
X285000Y120000D02*
X285162Y120162D01*
X290250D02*
X291588Y121500D01*
X296000D02*
X297500Y120000D01*
Y105000D02*
Y120000D01*
X191750Y158500D02*
X240750Y207500D01*
X298500D01*
X332978Y101978D02*
X336500Y105500D01*
X330500Y101500D02*
X330978Y101978D01*
X336500Y105500D02*
Y216500D01*
X330978Y101978D02*
X332978D01*
X332000Y109500D02*
Y114750D01*
X333000Y115750D01*
Y212500D01*
X311146Y241854D02*
X336500Y216500D01*
X307000Y238500D02*
X333000Y212500D01*
X340500Y225500D02*
Y253000D01*
X332000Y227750D02*
Y244500D01*
X311000Y265500D02*
X332000Y244500D01*
X305500Y258500D02*
X311146Y252854D01*
Y241854D02*
Y252854D01*
X304000Y264500D02*
Y315500D01*
X292000Y252500D02*
X304000Y264500D01*
Y315500D02*
X325500Y337000D01*
X292478Y258978D02*
X300500Y267000D01*
Y318412D02*
X318000Y335912D01*
X300500Y267000D02*
Y318412D01*
X380000Y358500D02*
X398000Y340500D01*
X308500Y355000D02*
X312000Y358500D01*
X380000D01*
X269000Y352000D02*
X280000Y363000D01*
X383500D02*
X409500Y337000D01*
X280000Y363000D02*
X383500D01*
X269000Y352000D02*
X269000D01*
X268000Y351000D02*
X269000Y352000D01*
X409500Y303500D02*
Y337000D01*
Y303500D02*
X412000Y301000D01*
X268000Y335500D02*
Y351000D01*
X398000Y316000D02*
Y340500D01*
X290500Y258500D02*
X290978Y258978D01*
X292478D01*
X318000Y335912D02*
Y342000D01*
X325500Y337000D02*
Y342000D01*
X280000Y252500D02*
X292000D01*
X300000Y253000D02*
X307000Y246000D01*
Y238500D02*
Y246000D01*
X340500Y253000D02*
X350000Y262500D01*
D61*
X361000Y197000D02*
Y208000D01*
X381000Y228000D01*
D62*
X203500Y196000D02*
X230000Y222500D01*
X286500D02*
X293000Y229000D01*
X230000Y222500D02*
X286500D01*
X293000Y229000D02*
Y240000D01*
D85*
X291200Y197700D02*
D03*
Y184300D02*
D03*
X252800Y197700D02*
D03*
Y184300D02*
D03*
X291200Y169700D02*
D03*
Y156300D02*
D03*
X252800Y169700D02*
D03*
Y156300D02*
D03*
X126300Y94200D02*
D03*
X139700D02*
D03*
X126300Y55800D02*
D03*
X139700D02*
D03*
X87300Y94200D02*
D03*
X100700D02*
D03*
X87300Y55800D02*
D03*
X100700D02*
D03*
X43900Y94200D02*
D03*
X57300D02*
D03*
X43900Y55800D02*
D03*
X57300D02*
D03*
X291200Y141700D02*
D03*
Y128300D02*
D03*
X252800Y141700D02*
D03*
Y128300D02*
D03*
D86*
X482500Y354370D02*
D03*
Y334685D02*
D03*
Y315000D02*
D03*
X224675Y22500D02*
D03*
X244360D02*
D03*
X264045D02*
D03*
X283730D02*
D03*
X303415D02*
D03*
X323100D02*
D03*
X342785D02*
D03*
X30620Y20472D02*
D03*
X50305D02*
D03*
X69990D02*
D03*
X89675D02*
D03*
X109360D02*
D03*
X129045D02*
D03*
X148730D02*
D03*
X168415D02*
D03*
X188100D02*
D03*
D87*
X482500Y295315D02*
D03*
D88*
X362470Y22500D02*
D03*
X10935Y20472D02*
D03*
D89*
X480600Y172000D02*
D03*
Y143500D02*
D03*
Y112500D02*
D03*
X445600D02*
D03*
Y143500D02*
D03*
Y172000D02*
D03*
X410600D02*
D03*
Y143500D02*
D03*
Y112500D02*
D03*
D90*
X190000Y284157D02*
D03*
X235000Y349843D02*
D03*
D91*
X190000Y303842D02*
D03*
X235000Y330157D02*
D03*
D92*
X120000Y347500D02*
D03*
X146000D02*
D03*
X120000Y312500D02*
D03*
X146000D02*
D03*
X119250Y148500D02*
D03*
Y183500D02*
D03*
D93*
X467500Y261890D02*
D03*
X443878Y254016D02*
D03*
X374016Y128878D02*
D03*
X325984D02*
D03*
X318110Y152500D02*
D03*
X325984Y176122D02*
D03*
X374016D02*
D03*
X375256Y205000D02*
D03*
Y253031D02*
D03*
X398878Y260906D02*
D03*
X422500Y253031D02*
D03*
Y205000D02*
D03*
X443878Y205984D02*
D03*
X491122Y254016D02*
D03*
Y205984D02*
D03*
X366000Y196000D02*
D03*
Y187000D02*
D03*
X357000Y199000D02*
D03*
Y190000D02*
D03*
X381000Y219000D02*
D03*
Y228000D02*
D03*
X391000Y219000D02*
D03*
Y228000D02*
D03*
D94*
X191750Y138500D02*
D03*
Y148500D02*
D03*
Y158500D02*
D03*
Y188500D02*
D03*
Y178500D02*
D03*
Y168500D02*
D03*
D95*
X350000Y302500D02*
D03*
Y312500D02*
D03*
Y322500D02*
D03*
Y332500D02*
D03*
Y252500D02*
D03*
Y262500D02*
D03*
Y272500D02*
D03*
Y282500D02*
D03*
Y292500D02*
D03*
Y242500D02*
D03*
Y232500D02*
D03*
X280000Y302500D02*
D03*
Y312500D02*
D03*
Y322500D02*
D03*
Y332500D02*
D03*
Y252500D02*
D03*
Y262500D02*
D03*
Y272500D02*
D03*
Y282500D02*
D03*
Y292500D02*
D03*
Y242500D02*
D03*
Y232500D02*
D03*
D96*
X350000Y342500D02*
D03*
X280000D02*
D03*
D97*
X355500Y179500D02*
D03*
X303000Y213000D02*
D03*
X296755Y213245D02*
D03*
X285000Y120000D02*
D03*
X290000Y105000D02*
D03*
X297500D02*
D03*
X211000Y273000D02*
D03*
Y264000D02*
D03*
X254000D02*
D03*
X420000Y327500D02*
D03*
X370030Y299530D02*
D03*
X342000Y112000D02*
D03*
X349500Y113500D02*
D03*
X330500Y101500D02*
D03*
X332000Y109500D02*
D03*
X311000Y265500D02*
D03*
X412000Y301000D02*
D03*
X268000Y335500D02*
D03*
X308500Y355000D02*
D03*
X398000Y316000D02*
D03*
X318000Y342000D02*
D03*
X290500Y258500D02*
D03*
X305500D02*
D03*
X293000Y240000D02*
D03*
X300000Y253000D02*
D03*
X325500Y342000D02*
D03*
X203500Y196000D02*
D03*
X391929Y305429D02*
D03*
X420000Y287500D02*
D03*
Y295000D02*
D03*
Y307500D02*
D03*
Y315000D02*
D03*
Y335000D02*
D03*
Y347500D02*
D03*
Y355000D02*
D03*
X371500Y80000D02*
D03*
Y85000D02*
D03*
Y90000D02*
D03*
X376500D02*
D03*
X371500Y95000D02*
D03*
X376500D02*
D03*
X344000Y80000D02*
D03*
Y85000D02*
D03*
Y90000D02*
D03*
X349000D02*
D03*
X344000Y95000D02*
D03*
X349000D02*
D03*
X316500Y80000D02*
D03*
Y85000D02*
D03*
Y90000D02*
D03*
X321500D02*
D03*
X316500Y95000D02*
D03*
X321500D02*
D03*
X289000Y80000D02*
D03*
Y85000D02*
D03*
Y90000D02*
D03*
X294000D02*
D03*
X289000Y95000D02*
D03*
X294000D02*
D03*
X261500Y80000D02*
D03*
Y85000D02*
D03*
Y90000D02*
D03*
X266500D02*
D03*
X261500Y95000D02*
D03*
X266500D02*
D03*
X179000Y80000D02*
D03*
Y85000D02*
D03*
Y90000D02*
D03*
X184000D02*
D03*
X179000Y95000D02*
D03*
X184000D02*
D03*
X234000Y80000D02*
D03*
Y85000D02*
D03*
Y90000D02*
D03*
X239000D02*
D03*
X234000Y95000D02*
D03*
X239000D02*
D03*
X211500D02*
D03*
X206500D02*
D03*
X211500Y90000D02*
D03*
X206500D02*
D03*
Y85000D02*
D03*
Y80000D02*
D03*
X197000Y363000D02*
D03*
X191000D02*
D03*
X185000D02*
D03*
X179000D02*
D03*
X164000Y331000D02*
D03*
X208000Y314000D02*
D03*
D98*
X380000Y330000D02*
D03*
X167500Y115000D02*
D03*
X67500Y257500D02*
D03*
D99*
X386500Y223500D02*
D03*
D100*
X365000Y184500D02*
D03*
D101*
X361500Y194035D02*
D03*
D102*
X483750Y188750D02*
D03*
D103*
X447500D02*
D03*
M02*
