G04*
G04 #@! TF.GenerationSoftware,Altium Limited,Altium Designer,21.6.4 (81)*
G04*
G04 Layer_Color=32768*
%FSLAX25Y25*%
%MOIN*%
G70*
G04*
G04 #@! TF.SameCoordinates,954FB955-D8E7-4683-B3BB-D37EB7A61878*
G04*
G04*
G04 #@! TF.FilePolarity,Positive*
G04*
G01*
G75*
%ADD106C,0.00197*%
D106*
X210669Y294000D02*
G03*
X210669Y294000I-20669J0D01*
G01*
X255669Y340000D02*
G03*
X255669Y340000I-20669J0D01*
G01*
X461831Y365197D02*
X499232D01*
X461831Y284488D02*
X499232D01*
Y365197D01*
X461831Y284488D02*
Y365197D01*
X283185Y108732D02*
X288815D01*
X283185Y120268D02*
X288815D01*
Y108732D02*
Y120268D01*
X283185Y108732D02*
Y120268D01*
X374832Y82185D02*
Y87815D01*
X386368Y82185D02*
Y87815D01*
X374832Y82185D02*
X386368D01*
X374832Y87815D02*
X386368D01*
X347332Y82185D02*
Y87815D01*
X358868Y82185D02*
Y87815D01*
X347332Y82185D02*
X358868D01*
X347332Y87815D02*
X358868D01*
X319832Y82185D02*
Y87815D01*
X331368Y82185D02*
Y87815D01*
X319832Y82185D02*
X331368D01*
X319832Y87815D02*
X331368D01*
X292332Y82185D02*
Y87815D01*
X303868Y82185D02*
Y87815D01*
X292332Y82185D02*
X303868D01*
X292332Y87815D02*
X303868D01*
X264832Y82185D02*
Y87815D01*
X276368Y82185D02*
Y87815D01*
X264832Y82185D02*
X276368D01*
X264832Y87815D02*
X276368D01*
X237332Y82185D02*
Y87815D01*
X248868Y82185D02*
Y87815D01*
X237332Y82185D02*
X248868D01*
X237332Y87815D02*
X248868D01*
X209832Y82185D02*
Y87815D01*
X221368Y82185D02*
Y87815D01*
X209832Y82185D02*
X221368D01*
X209832Y87815D02*
X221368D01*
X182332Y82185D02*
Y87815D01*
X193868Y82185D02*
Y87815D01*
X182332Y82185D02*
X193868D01*
X182332Y87815D02*
X193868D01*
X213848Y1831D02*
Y39232D01*
X373297Y1831D02*
Y39232D01*
X213848D02*
X373297D01*
X213848Y1831D02*
X373297D01*
X160945Y321358D02*
Y328642D01*
X174055Y321358D02*
Y328642D01*
X160945Y321358D02*
X174055D01*
X160945Y328642D02*
X174055D01*
X162067Y318347D02*
X167933D01*
X162067Y306653D02*
X167933D01*
X162067D02*
Y318347D01*
X167933Y306653D02*
Y318347D01*
X213331Y258827D02*
Y287173D01*
Y258827D02*
X254669D01*
Y287173D01*
X213331D02*
X254669D01*
X204358Y315445D02*
X211642D01*
X204358Y328555D02*
X211642D01*
Y315445D02*
Y328555D01*
X204358Y315445D02*
Y328555D01*
X173248Y319626D02*
Y365374D01*
Y319626D02*
X201752D01*
Y365374D01*
X173248D02*
X201752D01*
X108Y41142D02*
X198927D01*
X108Y3740D02*
X198927D01*
X108D02*
Y41142D01*
X198927Y3740D02*
Y41142D01*
X355728Y225512D02*
Y349488D01*
X344272Y225512D02*
X355728D01*
X344272D02*
Y349488D01*
X355728D01*
X285728Y225512D02*
Y349488D01*
X274272Y225512D02*
X285728D01*
X274272D02*
Y349488D01*
X285728D01*
X369232Y300315D02*
X380768D01*
X369232Y294685D02*
X380768D01*
Y300315D01*
X369232Y294685D02*
Y300315D01*
X441732Y357815D02*
X453268D01*
X441732Y352185D02*
X453268D01*
Y357815D01*
X441732Y352185D02*
Y357815D01*
Y337815D02*
X453268D01*
X441732Y332185D02*
X453268D01*
Y337815D01*
X441732Y332185D02*
Y337815D01*
Y317815D02*
X453268D01*
X441732Y312185D02*
X453268D01*
Y317815D01*
X441732Y312185D02*
Y317815D01*
Y297815D02*
X453268D01*
X441732Y292185D02*
X453268D01*
Y297815D01*
X441732Y292185D02*
Y297815D01*
X389232Y304315D02*
X400768D01*
X389232Y298685D02*
X400768D01*
Y304315D01*
X389232Y298685D02*
Y304315D01*
X421752Y352106D02*
X433248D01*
X421752Y357894D02*
X433248D01*
X421752Y352106D02*
Y357894D01*
X433248Y352106D02*
Y357894D01*
X421752Y332106D02*
X433248D01*
X421752Y337894D02*
X433248D01*
X421752Y332106D02*
Y337894D01*
X433248Y332106D02*
Y337894D01*
X421752Y312106D02*
X433248D01*
X421752Y317894D02*
X433248D01*
X421752Y312106D02*
Y317894D01*
X433248Y312106D02*
Y317894D01*
X421752Y292106D02*
X433248D01*
X421752Y297894D02*
X433248D01*
X421752Y292106D02*
Y297894D01*
X433248Y292106D02*
Y297894D01*
X421732Y344685D02*
X433268D01*
X421732Y350315D02*
X433268D01*
X421732Y344685D02*
Y350315D01*
X433268Y344685D02*
Y350315D01*
X421732Y324685D02*
X433268D01*
X421732Y330315D02*
X433268D01*
X421732Y324685D02*
Y330315D01*
X433268Y324685D02*
Y330315D01*
X421732Y304685D02*
X433268D01*
X421732Y310315D02*
X433268D01*
X421732Y304685D02*
Y310315D01*
X433268Y304685D02*
Y310315D01*
X421732Y284685D02*
X433268D01*
X421732Y290315D02*
X433268D01*
X421732Y284685D02*
Y290315D01*
X433268Y284685D02*
Y290315D01*
M02*
