G04*
G04 #@! TF.GenerationSoftware,Altium Limited,Altium Designer,21.6.4 (81)*
G04*
G04 Layer_Color=16711935*
%FSLAX25Y25*%
%MOIN*%
G70*
G04*
G04 #@! TF.SameCoordinates,954FB955-D8E7-4683-B3BB-D37EB7A61878*
G04*
G04*
G04 #@! TF.FilePolarity,Positive*
G04*
G01*
G75*
%ADD10C,0.00787*%
%ADD12C,0.00500*%
%ADD13C,0.01181*%
%ADD104C,0.00000*%
%ADD105C,0.00394*%
D10*
X502579Y295315D02*
G03*
X502579Y295315I-394J0D01*
G01*
X362864Y42185D02*
G03*
X362864Y42185I-394J0D01*
G01*
X190394Y316638D02*
G03*
X190394Y316638I-394J0D01*
G01*
X211756Y281858D02*
G03*
X211756Y281858I-394J0D01*
G01*
X235394Y317362D02*
G03*
X235394Y317362I-394J0D01*
G01*
X11328Y787D02*
G03*
X11328Y787I-394J0D01*
G01*
X350787Y351043D02*
G03*
X350787Y351043I-394J0D01*
G01*
X280787D02*
G03*
X280787Y351043I-394J0D01*
G01*
D12*
X209685Y294000D02*
G03*
X209685Y294000I-19685J0D01*
G01*
X254685Y340000D02*
G03*
X254685Y340000I-19685J0D01*
G01*
X498248Y285472D02*
Y364213D01*
X462815D02*
X498248D01*
X462815Y285472D02*
Y364213D01*
Y285472D02*
X498248D01*
X284228Y117847D02*
X287772D01*
X284228Y111153D02*
X287772D01*
Y117847D01*
X284228Y111153D02*
Y117847D01*
X383946Y83228D02*
Y86772D01*
X377254Y83228D02*
Y86772D01*
Y83228D02*
X383946D01*
X377254Y86772D02*
X383946D01*
X356447Y83228D02*
Y86772D01*
X349753Y83228D02*
Y86772D01*
Y83228D02*
X356447D01*
X349753Y86772D02*
X356447D01*
X328946Y83228D02*
Y86772D01*
X322253Y83228D02*
Y86772D01*
Y83228D02*
X328946D01*
X322253Y86772D02*
X328946D01*
X301447Y83228D02*
Y86772D01*
X294754Y83228D02*
Y86772D01*
Y83228D02*
X301447D01*
X294754Y86772D02*
X301447D01*
X273946Y83228D02*
Y86772D01*
X267253Y83228D02*
Y86772D01*
Y83228D02*
X273946D01*
X267253Y86772D02*
X273946D01*
X246446Y83228D02*
Y86772D01*
X239754Y83228D02*
Y86772D01*
Y83228D02*
X246446D01*
X239754Y86772D02*
X246446D01*
X218947Y83228D02*
Y86772D01*
X212253Y83228D02*
Y86772D01*
Y83228D02*
X218947D01*
X212253Y86772D02*
X218947D01*
X191446Y83228D02*
Y86772D01*
X184754Y83228D02*
Y86772D01*
Y83228D02*
X191446D01*
X184754Y86772D02*
X191446D01*
X214832Y38248D02*
X372313D01*
X214832Y2815D02*
Y38248D01*
Y2815D02*
X372313D01*
Y38248D01*
X171634Y322323D02*
Y327677D01*
X163366Y322323D02*
Y327677D01*
Y322323D02*
X171634D01*
X163366Y327677D02*
X171634D01*
X163110Y309035D02*
X166890D01*
X163110Y315965D02*
X166890D01*
X163110Y309035D02*
Y315965D01*
X166890Y309035D02*
Y315965D01*
X222189Y276937D02*
Y284811D01*
X219827Y276937D02*
X222189D01*
X219827Y269063D02*
Y276937D01*
Y269063D02*
X222189D01*
Y261189D02*
Y269063D01*
Y261189D02*
X245811D01*
Y284811D01*
X222189D02*
X245811D01*
X205323Y326134D02*
X210677D01*
X205323Y317866D02*
X210677D01*
Y326134D01*
X205323Y317866D02*
Y326134D01*
X174232Y334122D02*
Y358614D01*
Y334122D02*
X200768D01*
Y358614D01*
X174232D02*
X200768D01*
X1092Y4724D02*
Y40157D01*
X197942D01*
Y4724D02*
Y40157D01*
X1092Y4724D02*
X197942D01*
X371654Y299272D02*
X378346D01*
X371654Y295728D02*
X378346D01*
X371654D02*
Y299272D01*
X378346Y295728D02*
Y299272D01*
X444153Y356772D02*
X450846D01*
X444153Y353228D02*
X450846D01*
X444153D02*
Y356772D01*
X450846Y353228D02*
Y356772D01*
X444153Y336772D02*
X450846D01*
X444153Y333228D02*
X450846D01*
X444153D02*
Y336772D01*
X450846Y333228D02*
Y336772D01*
X444153Y316772D02*
X450846D01*
X444153Y313228D02*
X450846D01*
X444153D02*
Y316772D01*
X450846Y313228D02*
Y316772D01*
X444153Y296772D02*
X450846D01*
X444153Y293228D02*
X450846D01*
X444153D02*
Y296772D01*
X450846Y293228D02*
Y296772D01*
X391653Y303272D02*
X398346D01*
X391653Y299728D02*
X398346D01*
X391653D02*
Y303272D01*
X398346Y299728D02*
Y303272D01*
X424154Y353110D02*
X430847D01*
X424154Y356890D02*
X430847D01*
Y353110D02*
Y356890D01*
X424154Y353110D02*
Y356890D01*
Y333110D02*
X430847D01*
X424154Y336890D02*
X430847D01*
Y333110D02*
Y336890D01*
X424154Y333110D02*
Y336890D01*
Y313110D02*
X430847D01*
X424154Y316890D02*
X430847D01*
Y313110D02*
Y316890D01*
X424154Y313110D02*
Y316890D01*
Y293110D02*
X430847D01*
X424154Y296890D02*
X430847D01*
Y293110D02*
Y296890D01*
X424154Y293110D02*
Y296890D01*
Y345728D02*
X430847D01*
X424154Y349272D02*
X430847D01*
Y345728D02*
Y349272D01*
X424154Y345728D02*
Y349272D01*
Y325728D02*
X430847D01*
X424154Y329272D02*
X430847D01*
Y325728D02*
Y329272D01*
X424154Y325728D02*
Y329272D01*
Y305728D02*
X430847D01*
X424154Y309272D02*
X430847D01*
Y305728D02*
Y309272D01*
X424154Y305728D02*
Y309272D01*
Y285728D02*
X430847D01*
X424154Y289272D02*
X430847D01*
Y285728D02*
Y289272D01*
X424154Y285728D02*
Y289272D01*
D13*
X178839Y317303D02*
G03*
X178839Y317303I-394J0D01*
G01*
D104*
X294800Y119800D02*
G03*
X297200Y119800I1200J0D01*
G01*
X379200Y284900D02*
G03*
X379200Y282500I0J-1200D01*
G01*
X399300Y290200D02*
G03*
X399300Y287800I0J-1200D01*
G01*
X298700Y116300D02*
X300300D01*
Y114700D02*
Y116300D01*
X298700Y114700D02*
X300300D01*
X291700Y112200D02*
X293300D01*
X291700D02*
Y113700D01*
X293300D01*
Y112200D02*
Y113700D01*
Y111200D02*
Y112200D01*
X291700Y117300D02*
X293300D01*
X291700D02*
Y118800D01*
X293300D01*
Y113700D02*
Y117300D01*
Y118800D01*
Y119800D01*
X294800D01*
X297200D01*
X298700D01*
Y116300D02*
Y119800D01*
Y114700D02*
Y116300D01*
Y111200D02*
Y114700D01*
X293300Y111200D02*
X298700D01*
X370600Y281000D02*
Y286400D01*
Y281000D02*
X374100D01*
X375700D01*
X379200D01*
Y282500D01*
Y284900D01*
Y286400D01*
X378200D02*
X379200D01*
X376700D02*
X378200D01*
X373100D02*
X376700D01*
X378200D02*
Y288000D01*
X376700D02*
X378200D01*
X376700Y286400D02*
Y288000D01*
X370600Y286400D02*
X371600D01*
X373100D01*
Y288000D01*
X371600D02*
X373100D01*
X371600Y286400D02*
Y288000D01*
X374100Y279400D02*
Y281000D01*
Y279400D02*
X375700D01*
Y281000D01*
X390700Y286300D02*
Y291700D01*
Y286300D02*
X394200D01*
X395800D01*
X399300D01*
Y287800D01*
Y290200D01*
Y291700D01*
X398300D02*
X399300D01*
X396800D02*
X398300D01*
X393200D02*
X396800D01*
X398300D02*
Y293300D01*
X396800D02*
X398300D01*
X396800Y291700D02*
Y293300D01*
X390700Y291700D02*
X391700D01*
X393200D01*
Y293300D01*
X391700D02*
X393200D01*
X391700Y291700D02*
Y293300D01*
X394200Y284700D02*
Y286300D01*
Y284700D02*
X395800D01*
Y286300D01*
D105*
X354744Y226496D02*
Y348504D01*
X345256Y226496D02*
X354744D01*
X345256D02*
Y348504D01*
X354744D01*
X284744Y226496D02*
Y348504D01*
X275256Y226496D02*
X284744D01*
X275256D02*
Y348504D01*
X284744D01*
M02*
