G04*
G04 #@! TF.GenerationSoftware,Altium Limited,Altium Designer,21.6.4 (81)*
G04*
G04 Layer_Color=16711935*
%FSLAX25Y25*%
%MOIN*%
G70*
G04*
G04 #@! TF.SameCoordinates,954FB955-D8E7-4683-B3BB-D37EB7A61878*
G04*
G04*
G04 #@! TF.FilePolarity,Negative*
G04*
G01*
G75*
%ADD44C,0.09800*%
%ADD45C,0.08477*%
%ADD46R,0.08477X0.08477*%
%ADD47R,0.08477X0.08477*%
%ADD48C,0.17300*%
%ADD49C,0.05524*%
%ADD50R,0.05524X0.05524*%
%ADD51C,0.20800*%
%ADD52C,0.08800*%
%ADD53C,0.06800*%
%ADD54C,0.06942*%
%ADD55R,0.06942X0.06942*%
%ADD56C,0.05300*%
%ADD57C,0.30800*%
D44*
X291200Y197700D02*
D03*
Y184300D02*
D03*
X252800Y197700D02*
D03*
Y184300D02*
D03*
X291200Y169700D02*
D03*
Y156300D02*
D03*
X252800Y169700D02*
D03*
Y156300D02*
D03*
X126300Y94200D02*
D03*
X139700D02*
D03*
X126300Y55800D02*
D03*
X139700D02*
D03*
X87300Y94200D02*
D03*
X100700D02*
D03*
X87300Y55800D02*
D03*
X100700D02*
D03*
X43900Y94200D02*
D03*
X57300D02*
D03*
X43900Y55800D02*
D03*
X57300D02*
D03*
X291200Y141700D02*
D03*
Y128300D02*
D03*
X252800Y141700D02*
D03*
Y128300D02*
D03*
D45*
X482500Y354370D02*
D03*
Y334685D02*
D03*
Y315000D02*
D03*
X224675Y22500D02*
D03*
X244360D02*
D03*
X264045D02*
D03*
X283730D02*
D03*
X303415D02*
D03*
X323100D02*
D03*
X342785D02*
D03*
X30620Y20472D02*
D03*
X50305D02*
D03*
X69990D02*
D03*
X89675D02*
D03*
X109360D02*
D03*
X129045D02*
D03*
X148730D02*
D03*
X168415D02*
D03*
X188100D02*
D03*
D46*
X482500Y295315D02*
D03*
D47*
X362470Y22500D02*
D03*
X10935Y20472D02*
D03*
D48*
X480600Y172000D02*
D03*
Y143500D02*
D03*
Y112500D02*
D03*
X445600D02*
D03*
Y143500D02*
D03*
Y172000D02*
D03*
X410600D02*
D03*
Y143500D02*
D03*
Y112500D02*
D03*
D49*
X190000Y284157D02*
D03*
X235000Y349843D02*
D03*
D50*
X190000Y303842D02*
D03*
X235000Y330157D02*
D03*
D51*
X120000Y347500D02*
D03*
X146000D02*
D03*
X120000Y312500D02*
D03*
X146000D02*
D03*
X119250Y148500D02*
D03*
Y183500D02*
D03*
D52*
X467500Y261890D02*
D03*
X443878Y254016D02*
D03*
X374016Y128878D02*
D03*
X325984D02*
D03*
X318110Y152500D02*
D03*
X325984Y176122D02*
D03*
X374016D02*
D03*
X375256Y205000D02*
D03*
Y253031D02*
D03*
X398878Y260906D02*
D03*
X422500Y253031D02*
D03*
Y205000D02*
D03*
X443878Y205984D02*
D03*
X491122Y254016D02*
D03*
Y205984D02*
D03*
X366000Y196000D02*
D03*
Y187000D02*
D03*
X357000Y199000D02*
D03*
Y190000D02*
D03*
X381000Y219000D02*
D03*
Y228000D02*
D03*
X391000Y219000D02*
D03*
Y228000D02*
D03*
D53*
X191750Y138500D02*
D03*
Y148500D02*
D03*
Y158500D02*
D03*
Y188500D02*
D03*
Y178500D02*
D03*
Y168500D02*
D03*
D54*
X350000Y302500D02*
D03*
Y312500D02*
D03*
Y322500D02*
D03*
Y332500D02*
D03*
Y252500D02*
D03*
Y262500D02*
D03*
Y272500D02*
D03*
Y282500D02*
D03*
Y292500D02*
D03*
Y242500D02*
D03*
Y232500D02*
D03*
X280000Y302500D02*
D03*
Y312500D02*
D03*
Y322500D02*
D03*
Y332500D02*
D03*
Y252500D02*
D03*
Y262500D02*
D03*
Y272500D02*
D03*
Y282500D02*
D03*
Y292500D02*
D03*
Y242500D02*
D03*
Y232500D02*
D03*
D55*
X350000Y342500D02*
D03*
X280000D02*
D03*
D56*
X355500Y179500D02*
D03*
X303000Y213000D02*
D03*
X296755Y213245D02*
D03*
X285000Y120000D02*
D03*
X290000Y105000D02*
D03*
X297500D02*
D03*
X211000Y273000D02*
D03*
Y264000D02*
D03*
X254000D02*
D03*
X420000Y327500D02*
D03*
X370030Y299530D02*
D03*
X342000Y112000D02*
D03*
X349500Y113500D02*
D03*
X330500Y101500D02*
D03*
X332000Y109500D02*
D03*
X311000Y265500D02*
D03*
X412000Y301000D02*
D03*
X268000Y335500D02*
D03*
X308500Y355000D02*
D03*
X398000Y316000D02*
D03*
X318000Y342000D02*
D03*
X290500Y258500D02*
D03*
X305500D02*
D03*
X293000Y240000D02*
D03*
X300000Y253000D02*
D03*
X325500Y342000D02*
D03*
X203500Y196000D02*
D03*
X391929Y305429D02*
D03*
X420000Y287500D02*
D03*
Y295000D02*
D03*
Y307500D02*
D03*
Y315000D02*
D03*
Y335000D02*
D03*
Y347500D02*
D03*
Y355000D02*
D03*
X371500Y80000D02*
D03*
Y85000D02*
D03*
Y90000D02*
D03*
X376500D02*
D03*
X371500Y95000D02*
D03*
X376500D02*
D03*
X344000Y80000D02*
D03*
Y85000D02*
D03*
Y90000D02*
D03*
X349000D02*
D03*
X344000Y95000D02*
D03*
X349000D02*
D03*
X316500Y80000D02*
D03*
Y85000D02*
D03*
Y90000D02*
D03*
X321500D02*
D03*
X316500Y95000D02*
D03*
X321500D02*
D03*
X289000Y80000D02*
D03*
Y85000D02*
D03*
Y90000D02*
D03*
X294000D02*
D03*
X289000Y95000D02*
D03*
X294000D02*
D03*
X261500Y80000D02*
D03*
Y85000D02*
D03*
Y90000D02*
D03*
X266500D02*
D03*
X261500Y95000D02*
D03*
X266500D02*
D03*
X179000Y80000D02*
D03*
Y85000D02*
D03*
Y90000D02*
D03*
X184000D02*
D03*
X179000Y95000D02*
D03*
X184000D02*
D03*
X234000Y80000D02*
D03*
Y85000D02*
D03*
Y90000D02*
D03*
X239000D02*
D03*
X234000Y95000D02*
D03*
X239000D02*
D03*
X211500D02*
D03*
X206500D02*
D03*
X211500Y90000D02*
D03*
X206500D02*
D03*
Y85000D02*
D03*
Y80000D02*
D03*
X197000Y363000D02*
D03*
X191000D02*
D03*
X185000D02*
D03*
X179000D02*
D03*
X164000Y331000D02*
D03*
X208000Y314000D02*
D03*
D57*
X380000Y330000D02*
D03*
X167500Y115000D02*
D03*
X67500Y257500D02*
D03*
M02*
